<?xml version="1.0" standalone="no"?>
<!DOCTYPE svg PUBLIC "-//W3C//DTD SVG 1.1//EN" "http://www.w3.org/Graphics/SVG/1.1/DTD/svg11.dtd" >
<!--
2013-9-30: Created.
-->
<svg>
<metadata>
Created by iconfont
</metadata>
<defs>

<font id="iconfont" horiz-adv-x="1024" >
  <font-face
    font-family="iconfont"
    font-weight="500"
    font-stretch="normal"
    units-per-em="1024"
    ascent="896"
    descent="-128"
  />
    <missing-glyph />
    
    <glyph glyph-name="shezhi" unicode="&#58885;" d="M512 214.24355555c-93.63911113 0-169.87022223 76.11733334-169.87022223 169.75644445s76.23111111 169.75644445 169.87022223 169.75644445S681.75644445 477.63911113 681.75644445 384 605.63911113 214.24355555 512 214.24355555z m0 277.16266667c-59.27822223 0-107.40622222-48.12800001-107.40622222-107.40622222s48.12800001-107.40622222 107.40622222-107.40622222c59.16444445 0 107.29244446 48.12800001 107.29244446 107.40622222S571.16444445 491.40622222 512 491.40622222zM592.5202805-113.10269630000005H431.4797195c-19.67698173 0-35.47034864 15.92282075-35.47034864 35.47034865V61.40106272000003c-10.22685235 3.62470717-20.19479703 7.89668347-30.03328789 12.42756741l-98.38490866-98.38490865c-13.33374419-13.33374419-36.89434075-13.33374419-50.22808492 0l-113.91936791 113.91936791c-6.60214518 6.60214518-10.35630617 15.66391309-10.35630617 25.11404246 0 9.45012939 3.75416098 18.51189728 10.35630617 25.11404246l98.38490865 98.25545483c-4.66033778 9.83849086-8.80286025 19.80643555-12.42756741 30.03328789H50.36765235c-19.67698173 0-35.47034864 15.92282075-35.47034865 35.47034866V464.5202805c0 19.67698173 15.92282075 35.47034864 35.47034865 35.47034864h139.03341037c3.62470717 10.09739852 7.89668347 20.19479703 12.42756741 30.03328789l-98.38490865 98.25545482c-6.60214518 6.60214518-10.35630617 15.66391309-10.35630617 25.11404246 0 9.45012939 3.75416098 18.51189728 10.35630617 25.11404249l113.91936791 113.91936789c6.60214518 6.60214518 15.66391309 10.35630617 25.11404246 10.35630617 9.45012939 0 18.51189728-3.75416098 25.11404246-10.35630617l98.38490866-98.38490864c9.83849086 4.66033778 19.80643555 8.80286025 30.03328789 12.42756742V845.63234765c0 19.67698173 15.92282075 35.47034864 35.47034864 35.47034865h161.040561c19.67698173 0 35.47034864-15.92282075 35.47034864-35.47034865v-139.03341037c10.22685235-3.62470717 20.19479703-7.76722963 29.90383406-12.42756741l98.38490865 98.38490865c13.33374419 13.33374419 36.89434075 13.33374419 50.22808495 0l113.91936789-113.91936791c13.8515595-13.8515595 13.8515595-36.37652543 0-50.22808492l-98.38490864-98.25545483c4.66033778-9.83849086 8.80286025-19.80643555 12.42756742-30.03328789h139.03341036c19.67698173 0 35.47034864-15.92282075 35.47034864-35.47034866v-161.04056098c0-19.67698173-15.92282075-35.47034864-35.47034864-35.47034864H834.59893728c-3.62470717-10.22685235-7.89668347-20.19479703-12.42756741-30.03328789l98.38490865-98.25545483c13.8515595-13.8515595 13.8515595-36.37652543 0-50.22808494l-113.91936791-113.91936789c-6.60214518-6.60214518-15.66391309-10.35630617-25.11404246-10.35630617-9.45012939 0-18.51189728 3.75416098-25.11404246 10.35630617l-98.38490866 98.38490864c-9.83849086-4.66033778-19.80643555-8.80286025-29.90383406-12.42756741v-139.03341037c-0.12945383-19.80643555-15.92282075-35.7292563-35.59980247-35.7292563z m-125.57021235 71.07015112h89.97040988v129.45382715c0 16.05227457 10.74466765 30.16274173 26.27912691 34.3052642 22.13660445 5.95487605 43.62593975 14.88719013 63.82073679 26.40858074 13.98101333 8.02613728 31.32782617 5.69596839 42.84921679-5.69596839l91.65330963-91.65330963 63.69128296 63.69128296-91.65330963 91.65330963c-11.3919368 11.3919368-13.72210569 28.86820347-5.69596839 42.84921679 11.52139061 20.0653432 20.45370469 41.55467852 26.53803456 63.82073679 4.14252247 15.40500543 18.25298963 26.27912691 34.3052642 26.27912691h129.58328098v89.97040988H808.57871803c-16.05227457 0-30.16274173 10.74466765-34.3052642 26.27912691-6.08432987 22.26605827-15.01664395 43.75539358-26.53803458 63.82073679-8.02613728 13.8515595-5.69596839 31.45728 5.6959684 42.8492168l91.65330963 91.65330962-63.69128297 63.69128297-91.65330962-91.65330963c-11.3919368-11.3919368-28.73874963-13.59265185-42.84921679-5.6959684-20.19479703 11.52139061-41.55467852 20.45370469-63.82073679 26.40858074-15.40500543 4.14252247-26.27912691 18.25298963-26.27912692 34.3052642v129.32437333h-89.97040988V680.44926419c0-16.05227457-10.74466765-30.16274173-26.2791269-34.30526419-22.13660445-5.95487605-43.62593975-14.88719013-63.8207368-26.40858075-13.98101333-7.89668347-31.45728-5.56651457-42.84921678 5.6959684l-91.65330964 91.65330963-63.69128295-63.69128297 91.65330962-91.65330962c11.3919368-11.3919368 13.72210569-28.86820347 5.69596839-42.84921679-11.52139061-20.19479703-20.58315852-41.68413235-26.53803456-63.82073679-4.14252247-15.40500543-18.25298963-26.27912691-34.30526419-26.27912692h-129.45382717v-89.97040988h129.45382717c16.05227457 0 30.16274173-10.74466765 34.30526419-26.2791269 6.08432987-22.13660445 15.01664395-43.62593975 26.53803456-63.8207368 8.02613728-13.8515595 5.69596839-31.45728-5.69596839-42.84921678l-91.65330962-91.65330964 63.69128295-63.69128295 91.65330964 91.65330962c11.3919368 11.26248297 28.86820347 13.59265185 42.84921678 5.69596839 20.19479703-11.52139061 41.68413235-20.45370469 63.8207368-26.40858073 15.53445925-4.14252247 26.27912691-18.25298963 26.2791269-34.30526421v-129.19491949z"  horiz-adv-x="1024" />

    
    <glyph glyph-name="jiahao" unicode="&#58911;" d="M929.01013333 321.03786666999997h-354.44586666v-354.5024c0-34.54613333-28.01813333-62.53653333-62.56533334-62.53653334-34.54613333 0-62.56426667 27.9904-62.56426666 62.53653334v354.5024h-354.448c-34.57493333 0-62.56426667 27.9904-62.56426667 62.53653333 0 34.53333333 27.99253333 62.53653333 62.56426667 62.53653333h354.44586666v354.5024c0 34.53333333 28.01813333 62.53653333 62.56426667 62.53653334 34.5472 0 62.56533333-28.00426667 62.56533333-62.53653334v-354.50346666h354.44586667c34.57493333 0 62.56533333-28.00213333 62.56533333-62.5344-0.00106667-34.54613333-27.9904-62.5344-62.56533333-62.5344z"  horiz-adv-x="1024" />

    
    <glyph glyph-name="gongshangyinxing" unicode="&#58927;" d="M129.01332907 384.78589867l3.25820693-39.0242592 3.27458027-35.86538134 9.7746208-39.0984832 12.99899093-32.58861866 16.30304107-35.7922496 19.56234026-29.3653408 9.75715627-16.22554347L216.97618453 143.73971093l22.80417387-29.3009408 29.32058773-22.7910752 29.28675094-22.7343168 32.57988586-19.59617706 32.61154027-16.30631574 35.79989013-13.0481088 35.83481814-9.72331946 19.5175872-3.2418336 19.54378346-3.3247904 19.5492416 0 19.51103787 0 39.16506667 0 35.76496106 6.566624 39.0886592 9.72331946 32.65520214 13.0481088 35.79115733 16.30631574 29.2932992 19.59617706 16.25173973 9.7418752 13.133248 12.9924416 29.28893334 22.7910752 22.735408 29.3009408 22.83801173 29.31076374 19.52195307 29.3653408 16.25173973 35.7922496 13.1321568 32.58861866 9.77025493 39.0984832 3.19489814 16.33687894 3.35207786 19.52959466 0 19.53286827 0 19.49248213 0 39.11703894-6.54697706 39.0984832-9.77025494 35.83154453-13.1321568 35.82936107-16.25173973 32.5416832-19.52195307 32.6159072-9.76916266 16.25283093-13.068848 13.1321568-22.735408 25.94777067-29.28893334 26.05910613-29.38498773 22.77251947-29.2932992 19.5394176-35.79115733 16.36416746-32.65520214 13.04920107-39.0886592 9.76152213-16.26047146 3.2505664L552.50054933 765.95026667l-19.61582506 3.2494752-19.5492416 0-39.06027947-3.2494752-39.06246293-3.2505664-35.83481814-9.76152214-35.79989013-13.04920106-32.61154027-16.36416747-32.57988586-19.5394176-16.2561056-9.71458667-13.03064427-13.0579328-29.32058773-26.05910613L216.97618453 629.20490453l-22.7910752-29.38498773-19.56234026-32.6159072-16.30304107-32.5416832-12.99899093-35.82936107-9.7746208-35.83154453-3.27458027-19.6038176 0-19.49357333-3.25820693-19.56779734L129.01332907 384.78589867 129.01332907 384.78589867zM34.55370773 384.78589867l3.27458027 48.9254976 3.2407424 26.02199466 3.2603904 22.77251947 13.0481088 45.62690347 6.5142304 22.78125226 9.77025493 19.59617707 9.76043094 22.789984 9.77025493 19.56779733 22.8227296 39.04281494 12.99789867 19.5688896 16.307408 19.52086186 29.302032 32.5231264 16.28994346 16.36416747 16.28776 13.04920107 19.54596694 16.26047146 19.5503328 13.03937707 19.51103786 13.0579328 19.58307947 9.7516992 42.2835584 19.5394176 42.35341547 16.28994347L392.86478187 847.35959573l22.80417386 6.53824427 22.80417387 3.27021333 26.02636053 3.27785494 48.83599254 3.1752512 48.93422933-3.1752512 22.809632-3.27785494 22.73322453-3.27021333 45.63781867-13.02082133 22.809632-6.5568 22.80853973-9.7331424 19.5394176-9.8073664 19.5503328-9.7320512 42.31957867-22.809632 16.2539232-13.03937707 19.5492416-16.26047147 32.57988587-29.41227626 16.25173973-16.26156374 16.3183232-16.26156373 13.1310656-19.52086187 12.96515307-19.5688896 13.00226453-19.5492416 9.7418752-19.49248213 22.90241173-42.3588736 16.25064854-42.37742933 3.29750186-22.77251947 6.48257707-22.854384 3.2516576-22.77251947 3.23201067-26.02199466 3.28767786-48.9254976-3.28767786-48.8316256-3.23201067-22.7343168-3.2516576-22.8554752-9.78007893-45.599616-9.76916267-22.81836374-6.4814848-22.83691946-9.84447893-19.51213014-13.059024-19.53068586-22.74413974-42.3501408-12.96515306-16.25938027-13.1310656-19.59726827-32.57006294-32.5416832-16.26156373-16.30631573-16.31723093-16.35434347-19.5492416-12.9837088-16.2539232-13.01208853-19.51977067-13.03064427-22.8008992-9.67638293-39.09084267-22.83582827-45.61817173-16.33797013-22.77142827-6.4814848-22.8652992-3.3247904-22.73322453-3.2418336-22.809632-3.27785493-48.93422933-3.20472214-48.83599254 3.20472214-26.02636053 3.27785493-22.80417387 3.2418336-45.64109333 9.8062752-22.77251947 9.77025493-19.580896 6.5677152-22.73977386 9.656736-19.54378347 13.17909227-39.09302507 22.70702827-19.5503328 13.01208853-19.54596693 12.9837088-32.57770347 32.6617504-16.30304106 16.3183232-12.99899094 16.22336-16.307408 19.59726827-12.99789866 16.25938026-13.04920107 19.57871254-9.7735296 22.77142826-19.53068587 39.04281494-16.28448533 45.6552832-6.5327872 22.82818773L44.32941973 290.36448107l-3.2603904 22.8554752-3.2407424 22.7343168L34.55370773 384.78589867 34.55370773 384.78589867zM780.48007147 352.24421653l0-65.12047786 0-78.22643734 0-68.36122026-74.92784427 0L546.01797227 140.53608107000002l0 68.36122026 159.53425493 0 0 78.22643734-84.60641067 0-74.92893546 0 0 68.36231146 0 71.68710187 0 71.65981333 74.92893546 0 84.60641067 0 0 71.67727787L546.01797227 570.5102432l0 68.35248747 159.53425493 0 74.92784427 0 0-68.35248747 0-71.67727787 0-71.65981333-74.92784427 0-84.60641067 0 0-71.68710187 159.53316374 0L780.47898027 352.24421653 780.48007147 352.24421653zM243.06803627 352.24421653l0-65.12047786 0-78.22643734 0-68.36122026 74.86235306 0 159.63576747 0 0 68.36122026-159.63576747 0 0 78.22643734 84.70464854 0 74.93111893 0 0 68.36231146 0 71.68710187 0 71.65981333-74.93111893 0-84.70464854 0 0 71.67727787 159.63576747 0 0 68.35248747-159.63576747 0-74.86235306 0 0-68.35248747 0-71.67727787 0-71.65981333 74.86235306 0 84.70464854 0 0-71.68710187L243.06803627 355.48605012999997 243.06803627 352.24421653 243.06803627 352.24421653z"  horiz-adv-x="1024" />

    
    <glyph glyph-name="gou1" unicode="&#58896;" d="M345.781 5.832 0 351.429l77.181 77.187 268.601-268.234 601.781 601.786 77.186-77.366L345.781 5.832z"  horiz-adv-x="1025" />

    
    <glyph glyph-name="tupian" unicode="&#58886;" d="M515.48928 253.38368l-233.4976 256.096L123.22432 206.6624l0-83.42912 788.6208 0c-100.43776 89.30816-312.25344 280.36992-312.25344 280.36992L515.48928 253.38368zM789.66144 446.12608c43.81056 0 79.29984 36.56192 79.29984 81.73056 0 45.12-35.48928 81.75232-79.29984 81.75232-43.6928 0-79.20384-36.63232-79.20384-81.75232C710.4576 482.688 745.96992 446.12608 789.66144 446.12608zM0 806.4l0-862.31168 1024 0L1024 806.4 0 806.4zM972.58496-1.08416 54.92352-1.08416l-0.04352 749.19808 860.3328 0 0-0.04864 57.37088 0L972.58368-1.08416z"  horiz-adv-x="1024" />

    
    <glyph glyph-name="zhongguojiansheyinxing" unicode="&#59023;" d="M622.05082531 775.60553156l257.26301531-261.52444687 90.05989969 89.98698844L800.73447781 781.24842562C746.43241438 829.8960825 699.28326219 847.04637469 699.28326219 847.04637469 559.17697438 892.69030781 477.77328594 829.8960825 477.77328594 829.8960825 579.18420875 828.43115531 622.05082531 775.60553156 622.05082531 775.60553156L622.05082531 775.60553156 622.05082531 775.60553156zM752.14630062 358.30669968999996c-31.46954344 4.16549625-37.18438875-12.90037312-37.18438875-12.90037313L516.28349562 145.36851187000002c-14.25305625-20.08110469-30.00557625 5.56230844-30.00557624 5.56230844L294.76680406 342.54938344000004c-15.68440594 8.57178844-2.81856938 28.57998281-2.81856937 28.57998281l195.79365187 200.03781469c12.85624313 20.07918656 29.99982-2.78019469 29.99982-2.78019469l194.36326125-190.07880656c14.28663375-22.93708875 31.47529969 1.46588625 31.47529969 1.46588625l105.76828875 102.79718343L554.93281156 778.46247469c-124.3480125 85.73323312-280.12911281-30.04395-280.12911281-30.04395C61.86647094 624.1434225 54.64736469 389.73211406 54.64736469 389.73211406 51.82304 39.55609313000002 321.98642938-54.74796844000002 321.98642938-54.74796844000002c280.10033156-125.81965406 484.45617844 78.61965563 484.45617843 78.61965563 157.25082375 128.52502031 148.64449875 334.43501344 148.64449875 334.43501344L752.14630062 358.30669968999996 752.14630062 358.30669968999996 752.14630062 358.30669968999996zM752.14630062 358.30669968999996"  horiz-adv-x="1024" />

    
    <glyph glyph-name="password" unicode="&#59089;" d="M780.8 541.420308L665.6 541.420308 665.6 584.310154c0 72.310154-19.849846 193.299692-153.6 193.299692-138.870154 0-153.6-135.049846-153.6-193.299692l0-42.889846L243.2 541.420308 243.2 584.310154C243.2 773.750154 348.790154 896 512 896s268.8-122.249846 268.8-311.689846L780.8 541.420308zM588.8 226.57969200000002C588.8 270.099692 554.220308 305.230769 512 305.230769s-76.8-35.131077-76.8-78.651077c0-29.459692 15.399385-54.468923 38.439385-67.820308l0-89.639385c0-21.740308 17.250462-39.699692 38.4-39.699692s38.4 17.959385 38.4 39.699692l0 89.639385C573.44 172.110769 588.8 197.12 588.8 226.57969200000002zM896 384l0-393.609846c0-65.260308-51.869538-118.390154-115.2-118.390154L243.2-128c-63.291077 0-115.2 53.129846-115.2 118.390154L128 384c0 65.220923 51.869538 118.390154 115.2 118.390154l537.6 0C844.130462 502.390154 896 449.220923 896 384z"  horiz-adv-x="1024" />

    
    <glyph glyph-name="user" unicode="&#58917;" d="M645.632 378.36800000000005c76.8 45.568 128 129.536 128 224.768 0 144.384-117.248 261.632-261.632 261.632S250.368 747.52 250.368 603.136c0-95.232 51.2-179.2 128-224.768-192.512-57.856-333.312-236.544-333.312-447.488h56.32c0 226.304 184.32 410.624 410.624 410.624s410.624-184.32 410.624-410.624h56.32c0 211.456-140.8 390.144-333.312 447.488zM306.688 603.136c0 113.152 92.16 205.312 205.312 205.312s205.312-92.16 205.312-205.312-92.16-205.312-205.312-205.312-205.312 92.16-205.312 205.312z"  horiz-adv-x="1024" />

    
    <glyph glyph-name="iconfontwenhao1" unicode="&#58913;" d="M512 865.28c265.728 0 481.28-215.552 481.28-481.28s-215.552-481.28-481.28-481.28-481.28 215.552-481.28 481.28S246.272 865.28 512 865.28z m31.744-647.168c0.512 30.208 2.56 52.224 6.144 66.048 3.584 13.312 9.216 25.6 16.896 35.84 7.68 10.24 23.552 26.624 48.64 48.64 36.864 32.768 61.44 60.416 74.24 82.944 12.8 22.528 18.944 47.616 18.944 74.752 0 46.592-17.92 86.528-53.76 119.296-35.84 32.768-83.968 49.152-144.896 49.152-56.832 0-102.912-15.36-137.728-46.08-34.816-30.72-55.808-74.752-62.464-132.608L387.584 506.88c6.656 43.008 20.992 74.752 42.496 94.72 21.504 19.968 48.64 30.208 80.896 30.208 33.28 0 61.952-11.264 84.992-33.28 23.04-22.528 34.304-48.128 34.304-77.824 0-16.384-4.096-31.232-11.776-45.056-7.68-13.824-25.088-32.256-51.2-55.296-26.112-23.04-44.544-40.96-54.784-52.736-13.824-16.384-23.552-33.28-29.696-49.152-8.192-21.504-12.8-47.616-12.8-77.312 0-5.12 0-12.8 0.512-23.04h73.216z m9.216-152.064v86.528H466.432v-86.528H552.96z"  horiz-adv-x="1025" />

    
    <glyph glyph-name="chuangjian" unicode="&#58930;" d="M343.71072 150.25152000000003H229.25824c-19.56352 0-35.59936 16.03584-35.59936 35.59936s16.03584 35.59936 35.59936 35.59936h112.5376a306.26816 306.26816 0 0 0 24.12544 95.03232H229.26336c-19.56352 0-35.59936 16.03584-35.59936 35.59936s16.03584 35.59936 35.59936 35.59936h180.20352c34.8672 42.8032 81.05472 76.05248 134.01088 95.03232h-314.2144c-19.56352 0-35.59936 16.03584-35.59936 35.59936s16.03584 35.59936 35.59936 35.59936h548.85376c19.56352 0 35.59936-16.03584 35.59936-35.59936s-16.03584-35.59936-35.59936-35.59936h-26.92096c96.06144-34.57024 169.9072-115.77344 194.32448-216.24832V778.9824c0 59.42784-48.5376 107.97568-107.97568 107.97568H169.82528C110.39744 887.10656 61.8496 838.41024 61.8496 778.9824v-771.42528c0-59.42784 48.54272-107.97568 107.97568-107.97568h391.59808c-113.85856 33.23904-200.50432 130.77504-217.71264 250.67008zM229.25824 720.72704h548.85376c19.56352 0 35.59936-16.03584 35.59936-35.59936s-16.03584-35.59936-35.59936-35.59936H229.25824c-19.56352 0-35.59936 16.03584-35.59936 35.59936s16.03584 35.59936 35.59936 35.59936z m625.93536-439.54688c-12.00128 28.34432-28.30336 53.0944-48.85504 74.35264s-44.53888 38.16448-71.94112 50.54464c-27.40224 12.38528-56.8832 18.61632-88.43776 18.61632-30.848 0-59.95008-6.23104-87.39328-18.61632-27.39712-12.3648-51.39968-29.28128-71.94624-50.54464-20.55168-21.25824-36.84352-46.00832-48.8448-74.35264-11.99616-28.34944-17.9968-58.48576-17.9968-90.4192 0-32.59392 5.9904-63.11936 17.9968-91.46368 11.99616-28.34432 28.29824-53.0944 48.8448-74.34752 20.54656-21.25824 44.55424-38.1696 71.94624-50.55488 27.4432-12.37504 56.55552-18.6112 87.39328-18.6112 31.55456 0 61.04064 6.23616 88.43776 18.6112 27.39712 12.38016 51.38944 29.29664 71.94112 50.55488 20.56192 21.25312 36.85888 46.0032 48.85504 74.34752 12.00128 28.34432 17.9968 58.86976 17.9968 91.46368 0 31.93344-5.99552 62.06976-17.9968 90.4192z m-260.17792-148.1472l167.57248 191.72352m32.34816-44.16l-204.92288-225.01888a7.96672 7.96672 0 0 0-11.3664-0.41472l-92.30336 87.38304a7.97696 7.97696 0 0 0-0.128 11.4432l28.55424 28.17536a7.96672 7.96672 0 0 0 11.15136 0.04096l52.51072-51.18464a7.936 7.936 0 0 1 5.87264-2.25792c2.2784 0.09216 4.29568 1.1264 5.67808 2.7136l164.23936 187.91424a7.936 7.936 0 0 0 5.69344 2.70848 7.936 7.936 0 0 0 5.86752-2.2528l28.83072-28.20096a7.95136 7.95136 0 0 0 0.32256-11.04896z"  horiz-adv-x="1024" />

    
    <glyph glyph-name="shenpiedu" unicode="&#58922;" d="M843.7 167.20000000000005H690c-31.5 58.8-65.2 126.9-65.2 181.5 0 36.1 17.7 58.7 40.2 87.3 28.7 36.7 64.5 82.4 64.5 164.6C729.5 728.2 632 832 512 832S294.5 728.2 294.5 600.7c0-82.2 35.8-127.9 64.5-164.6 22.4-28.6 40.1-51.2 40.1-87.3 0-54.6-33.7-122.8-65.1-181.5H180.3C116.2 167.20000000000005 64 115.39999999999998 64 51.60000000000002 64-12.100000000000023 116.2-64 180.3-64h663.4c64.2 0 116.3 51.9 116.3 115.6 0 63.8-52.2 115.6-116.3 115.6zM409.3 475.5c-26.2 33.4-50.9 65-50.9 125.2 0 92.3 68.9 167.4 153.6 167.4S665.6 693 665.6 600.7c0-60.2-24.7-91.8-50.9-125.2-25.2-32.1-53.8-68.6-53.8-126.7 0-59.2 27.3-123.5 56.9-181.5H406.2c29.6 58 56.9 122.3 56.9 181.5-0.1 58.1-28.6 94.5-53.8 126.7z m434.4-475.6H180.3c-28.7 0-52 23.2-52 51.7 0 28.5 23.3 51.7 52 51.7h663.4c28.7 0 52-23.2 52-51.7 0-28.5-23.4-51.7-52-51.7z"  horiz-adv-x="1024" />

    
    <glyph glyph-name="daifahuo" unicode="&#58898;" d="M345.825818 85.59367899999995m-88.004333 0a86 86 0 1 1 176.008666 0 86 86 0 1 1-176.008666 0ZM799.862685 85.59367899999995m-88.002286 0a85.998 85.998 0 1 1 176.004573 0 85.998 85.998 0 1 1-176.004573 0ZM851.905992 490.380866L615.836415 490.380866l0-404.78821 44.350091 0c0 74.227562 60.173474 134.403083 134.404106 134.403083s134.404106-60.175521 134.404106-134.403083l44.350091 0L973.344808 324.41902000000005 851.905992 490.380866zM713.501782 292.518472L713.501782 428.002167l97.153714 0 96.342232-135.482671L713.501782 292.519496zM270.08274 568.120414L270.08274 686.991756 239.495094 686.991756 239.495094 555.654498 239.698732 555.654498 239.495094 555.4508599999999 332.363202 462.58173 353.990778 484.209306ZM464.991872 563.2443599999999l0 0.002047c0 114.411773-92.753497 207.164247-207.170386 207.164247-114.413819 0-207.166293-92.753497-207.166293-207.164247 0-60.083423 25.604144-114.166179 66.463738-152.009066l0-325.644685 94.399997 0c0 74.173326 60.131519 134.304845 134.306892 134.304845 74.175373 0 134.306892-60.131519 134.306892-134.304845l94.399997 0L574.532707 563.2443599999999 464.991872 563.2443599999999zM257.821485 398.040784c-92.536556 0-167.553087 75.015507-167.553087 167.552064 0 92.536556 75.016531 167.552064 167.553087 167.552064s167.552064-75.016531 167.552064-167.552064C425.374572 473.056292 350.358041 398.040784 257.821485 398.040784z"  horiz-adv-x="1024" />

    
    <glyph glyph-name="shouxinzonge" unicode="&#58924;" d="M512 867.328C245.248 867.328 28.672 650.752 28.672 384S245.76-99.32799999999997 512-99.32799999999997s483.328 217.088 483.328 483.328S778.752 867.328 512 867.328z m0-910.336c-235.52 0-427.008 191.488-427.008 427.008S276.48 811.008 512 811.008 939.008 619.52 939.008 384 747.52-43.00800000000004 512-43.00800000000004zM749.568 610.816l-39.936 39.936-190.464-190.976-190.976 190.976-39.936-39.936 169.472-169.472H265.728v-56.32h224.256v-95.744H265.728v-56.32h224.256v-158.72H547.84v158.72h224.768v56.32H547.84V385.024h224.768v56.32h-192.512z"  horiz-adv-x="1024" />

    
    <glyph glyph-name="jianhao" unicode="&#58947;" d="M929.1232 321.33333332999996h-834.1408c-34.5504 0-62.55893333 28.0064-62.55893333 62.5568s28.0064 62.57173333 62.55893333 62.57173334h834.14293333c34.5664 0 62.55893333-28.02133333 62.55893334-62.57173334-0.00106667-34.55253333-27.99466667-62.5568-62.55893334-62.5568z"  horiz-adv-x="1024" />

    
    <glyph glyph-name="zhiyin" unicode="&#59213;" d="M58.748-62.835l619.12 281.193 281.263 618.912-618.977-281.332-281.403-618.773zM621.451 274.676l-450.349-225.020 225.154 450.279 225.195-225.258z"  horiz-adv-x="1024" />

    
    <glyph glyph-name="wuliuguanli" unicode="&#58955;" d="M375.254569 125.087159c0-47.535643-38.524408-86.059028-86.060051-86.059028s-86.060051 38.523385-86.060051 86.059028c0 47.536666 38.523385 86.060051 86.060051 86.060051C336.730161 211.149257 375.254569 172.625872 375.254569 125.087159L375.254569 125.087159zM857.189833 125.087159c0-47.535643-38.523385-86.059028-86.059028-86.059028-47.536666 0-86.060051 38.523385-86.060051 86.059028 0 47.536666 38.523385 86.060051 86.060051 86.060051C818.666448 211.149257 857.189833 172.625872 857.189833 125.087159L857.189833 125.087159zM934.107667 418.364669l-76.917834 137.024793c-15.731286 18.959817-26.354228 34.424021-51.635007 34.424021L685.069731 589.813482 685.069731 693.085544c0 18.959817-15.46318 34.422997-34.424021 34.422997l-550.784328 0c-18.960841 0-34.424021-15.46318-34.424021-34.422997l0-516.360308c0-18.960841 15.46318-34.425044 34.424021-34.425044l68.645426 0c8.441253 59.302641 59.068304 105.220437 120.68771 105.220437s112.246457-45.917796 120.686686-105.220437l240.560868 0.034792c8.471952 59.298548 59.100026 105.185644 120.688733 105.185644 61.619406 0 112.245434-45.917796 120.686686-105.220437l34.221406 0c18.959817 0 34.424021 15.46318 34.424021 34.425044 0 0 0 139.509381 0 172.120103C960.461895 381.455037 934.107667 418.364669 934.107667 418.364669L934.107667 418.364669zM719.494775 348.845339l0 172.120103 84.209914 0c5.54632 0 13.246699-8.135284 13.246699-8.135284l72.476685-134.738727c6.4192-9.44614 13.379729-20.641109 13.379729-29.246091L719.494775 348.845339 719.494775 348.845339z"  horiz-adv-x="1024" />

    
    <glyph glyph-name="mobile" unicode="&#58900;" d="M723.29 864.9639999999999h-422.626c-64.396 0-116.578-52.229-116.578-116.578v-728.771c0-64.347 52.183-116.578 116.578-116.578h422.626c64.441 0 116.625 52.231 116.625 116.578v728.77c0 64.35-52.185 116.579-116.625 116.579zM386.239 792.067h251.519v-58.337h-251.519v58.337zM512.023-24.067999999999984c-40.393 0-73.084 32.692-73.084 73.086 0 40.297 32.69 72.987 73.084 72.987 40.346 0 73.083-32.69 73.083-72.987 0-40.393-32.737-73.086-73.083-73.086zM741.513 158.07799999999997h-459.074v531.973h459.074v-531.973z"  horiz-adv-x="1024" />

    
    <glyph glyph-name="rongzi" unicode="&#58994;" d="M785.633101 205.92118500000004l-58.655911 0 0 26.943652 58.655911 0 0 30.127158-48.237631 0 67.398016 108.856243-42.691311-0.2415-37.049824-68.295456c-5.051039-9.529027-8.891508-16.98279-11.724019-22.753213l-3.65218-7.444553-3.687996 7.42818c-8.800433 17.724687-24.409946 47.00864-47.721885 89.522919l-0.873903 1.594311-41.067324 0 63.2393-108.60758-49.646724 0 0-30.127158 60.887742 0 0-26.942629-60.887742 0 0-30.504758 60.887742 0 0-48.163953 36.170804 0 0 48.104601 58.655911 0L785.632077 205.92118500000004zM932.893003 429.205575c-35.646871 46.709835-86.218664 82.398662-142.400221 100.492762l-2.865257 0.923022 0.026606 3.010567c0.310062 34.010605 1.219781 144.661727 1.221828 146.06468 0 35.202757-36.395932 65.027016-105.254206 86.246293C624.102171 784.282592 543.223119 794.80218 461.721897 794.80218c-81.45415 0-162.293293-10.522658-221.789339-28.868491-68.848041-21.230534-105.239879-51.093678-105.239879-86.361927l0.74599-88.862887-2.836605-0.935302c-30.955013-10.204409-55.034431-22.107507-71.570036-35.380812-18.075681-14.508435-27.240411-30.706349-27.240411-48.142463l0.165776-15.338337c0.422625-39.245839 1.543146-143.495158 1.551332-144.291291 0.102331-12.791327 11.634991-27.117614 34.277688-42.584887 1.297552-0.8913 4.490268-2.817162 12.394285-6.965645l2.167363-1.137916 1.616824-170.72636 0.095167-0.364297c8.265244-31.742958 47.867194-58.430784 114.52536-77.180823 57.923224-16.292058 134.737704-25.63689 210.747865-25.63689 36.040844 0 74.134441 2.553149 113.224738 7.589862l1.683339 0.216941 1.342578-1.037632c51.627844-39.886429 112.189152-60.968583 175.134763-60.968583 159.102624 0 288.540625 129.406279 288.540625 288.466947C991.290017 319.339328 971.107349 379.13213199999996 932.893003 429.205575zM247.450788 735.400279c57.084113 17.935488 133.179208 27.812439 214.271108 27.812439 81.131809 0 157.260673-9.865695 214.360136-27.780717 50.809199-15.941064 81.144088-36.754089 81.144088-55.673997 0-3.224438-1.332345-6.838755-4.319375-11.715833l-0.083911-0.130983c-1.321088-1.983167-3.399423-4.173043-5.414313-6.246261l-0.113587-0.122797c-1.822508-2.009773-4.03285-3.985778-5.948479-5.646604l-0.12689-0.106424c-3.897773-3.111874-7.552-5.699816-11.500938-8.145517-1.547239-0.986467-3.406586-1.978051-5.375427-3.027963l-1.49812-0.801249c-5.307889-2.902096-10.829649-5.922896-17.450441-8.760524-0.573051-0.24457-1.203408-0.474814-1.837858-0.704035l-0.171915-0.062422c-0.772596-0.280386-1.544169-0.559748-2.2656-0.865717-13.763468-5.603625-30.30726-10.886955-49.227168-15.72617-1.282203-0.339738-2.571568-0.692778-3.857864-1.044796l-0.121773-0.033769c-3.184529-0.873903-6.194072-1.698688-9.583263-2.455935-6.04467-1.381463-12.568247-2.563382-19.475564-3.814886l-0.36839-0.066515c-2.031263-0.36839-4.064572-0.73678-6.02318-1.100054-1.638313-0.287549-3.231601-0.569982-4.831029-0.854461l-0.832971 4.009314 0.715291-4.02978c-4.850471-0.861624-9.867742-1.753947-15.130605-2.560312-8.043187-1.236154-16.391319-2.206248-25.228591-3.233648l-3.189645-0.37146c-35.892465-3.972475-69.327972-5.90243-102.240569-5.90243-81.125669 0-157.230997 9.866718-214.295668 27.780717-50.771337 15.939017-81.081667 36.752042-81.081667 55.67502C166.344562 698.618561 196.664102 719.443865 247.450788 735.400279zM756.995877 627.413845l-0.571005-87.715761-4.76963 0.838088c-15.990183 2.808976-32.432667 4.233418-48.872081 4.233418-41.460274 0-81.520665-8.826016-119.068839-26.233478-35.069727-16.258289-66.302055-39.186488-92.828198-68.1481l-1.1328-1.237177-1.676176-0.084934c-1.868557-0.096191-3.735068-0.198521-5.602601-0.301875-6.795776-0.37453-13.803377-0.76134-20.750603-0.76134-77.722152 0-151.634536 9.070586-208.121038 25.540699-48.056506 14.011108-80.149435 32.536021-85.848227 49.553603l-0.205685 0.615007-0.503467 56.040341-0.278339 47.650253 6.381337-4.183276c25.974581-17.025769 65.299215-31.414477 113.723088-41.609677 51.936883-10.93505 114.056686-16.957207 174.915775-16.957207 29.938869 0 60.703547 1.461281 91.441619 4.343935 6.862291 0.692778 14.235213 1.531889 21.295002 2.425236l0.099261 0.014326c0.73678 0.10847 1.553379 0.195451 2.371 0.280386l0.12689 0.013303c0.950651 0.100284 1.902326 0.200568 2.733251 0.323365 3.724835 0.508583 7.426133 1.069355 11.005658 1.612731l1.586125 0.240477c6.872524 1.011027 13.042037 1.930979 19.152199 2.989077l0.106424 0.017396c0.347924 0.051165 0.713244 0.109494 1.088798 0.170892l0.105401 0.017396c0.5137 0.082888 1.046842 0.168846 1.581008 0.236384l0.246617 0.037862c41.040718 7.189749 98.028641 20.996197 135.880737 45.844118L756.995877 627.413845zM65.441455 506.327046c0 16.070001 24.310685 34.688034 65.030086 49.802266l5.430686 2.015913 0.578168-38.552038 0.092098-0.354064c7.300266-28.297486 38.385239-51.962465 92.390223-70.341045 17.706267-6.025227 37.878702-11.385305 59.956533-15.930831l-1.077541-8.094352c-78.962399 4.880147-140.54292 19.507286-188.263781 44.717458l-0.007163 0.004093c-8.378831 4.449335-33.873482 17.990746-34.127262 36.357046L65.441455 506.327046zM98.771561 321.210955l-1.146103 0.624217c-21.304212 11.605316-30.839379 20.300348-30.91408 28.192086-0.255827 31.705096-0.476861 75.308173-0.361227 96.134501l0.041956 7.490601 6.282077-4.081968c3.252067-2.113127 6.702656-4.196579 10.253528-6.192026 0.989537-0.584308 1.932002-1.044796 2.842745-1.489934l0.148379-0.072655c0.422625-0.206708 0.838088-0.410346 1.203408-0.600681 7.956206-4.213975 16.005532-7.92039 24.633027-11.342326l0.490164-0.220011c0.684592-0.320295 1.382487-0.647753 2.200108-0.944512 9.003048-3.487428 19.194154-6.870478 31.238468-10.372232 1.651616-0.509606 3.27151-0.953721 4.838192-1.38351l0.836041-0.229221c11.110035-3.107781 22.314215-5.853311 35.279504-8.645914 11.661597-2.467191 24.340361-4.724605 37.669948-6.704702 1.25969-0.194428 2.466168-0.36839 3.670599-0.543376l0.124843-0.01842c1.169639-0.168846 2.340301-0.337691 3.617387-0.533143 13.422707-1.909489 26.353205-3.476171 39.49041-4.786003 11.748578-1.136893 24.911366-2.077312 40.226167-2.876514 1.499144-0.060375 3.01466-0.138146 4.530177-0.216941 1.539053-0.080841 3.076058-0.159636 4.627391-0.222057 15.084557-0.64366 28.258601-0.957815 40.286542-0.957815 21.091364 0 41.364083 1.013073 60.131519 2.108011 1.974981 0.13917 3.978614 0.275269 5.976108 0.410346 4.194532 0.284479 8.522094 0.577145 12.923334 0.927115 1.360997 0.112564 2.723018 0.243547 4.068665 0.382717l7.601118 0.787946-3.555989-6.763031c-17.696034-33.666774-28.303626-70.272483-31.528064-108.803032l-0.300852-3.598968-3.608178-0.149403c-18.682501-0.776689-38.860053-1.363044-60.048631-1.363044-59.960627 0-128.030955 4.703115-193.308681 23.147186C140.275837 303.724699 118.278847 310.67806399999995 98.771561 321.210955zM148.407028 266.706597l0.442068 1.952468c3.908006-0.837064 7.599072-1.629103 11.293207-2.653433 19.551288-5.484921 40.49018-9.946536 64.024176-13.643742 41.067324-6.227842 83.48439-9.256828 129.653919-9.256828 18.750039 0 37.763069 0.932232 57.215096 1.971911l4.124947 0.221034 0.183172-4.125971c0.593518-13.362332 1.64036-24.344454 3.297093-34.56319l0.738827-4.551666-4.607948-0.192382c-1.25355-0.053212-2.323928-0.076748-3.370771-0.076748-95.692433 0-162.686243 15.21861-202.037483 27.986401-28.749788 9.326413-52.702316 20.661575-69.266573 32.778544l3.325745 7.29515c1.808182-0.411369 3.604084-0.797156 5.382591-1.177825l0 0-0.417509-1.947352C148.393725 266.71682999999996 148.399865 266.71171300000003 148.407028 266.706597zM485.602793 57.019901000000004c-26.626427-2.279926-50.184983-3.341095-74.141604-3.341095-77.796854 0-151.751193 9.061376-208.239741 25.515117-48.061622 13.999852-80.179111 32.532951-85.912695 49.577139l-0.208754 0.6191L116.26191 240.73303899999996l6.506181-4.573155c25.490557-17.913998 62.841234-33.455973 108.014062-44.946678 54.200436-13.787004 116.656907-21.073968 180.615591-21.073968 4.797259 0 9.414417 0.258896 14.114462 0.547469l3.172249 0.194428 0.974188-3.024893c12.58462-39.068807 32.865525-75.045183 58.651818-104.039541l5.426593-6.101975L485.602793 57.019901000000004zM884.413871 74.77528600000005c-48.559972-48.559972-113.065102-75.303057-181.63071-75.303057-141.649114 0-256.888741 115.236558-256.888741 256.882602 0 141.614321 115.239628 256.82632 256.888741 256.82632 141.648091 0 256.886695-115.213022 256.886695-256.828366 0 0 0 0.001023 0 0.001023l0-0.002047c0 0 0 0.001023 0 0.001023C959.700555 187.82094500000005 932.973844 123.33525899999995 884.413871 74.77528600000005z"  horiz-adv-x="1024" />

    
    <glyph glyph-name="shenhe" unicode="&#58890;" d="M951.996-42.90300000000002l-107.977 107.977c24.42 36.925 38.983 81.203 38.983 128.866 0 129.159-104.74 233.9-233.9 233.9-129.159 0-233.9-104.74-233.9-233.9 0-129.159 104.74-233.9 233.9-233.9 47.663 0 91.941 14.417 128.866 38.983l107.977-107.977c13.387-13.387 35.453-13.387 48.839 0l17.211 17.211c13.534 13.534 13.534 35.453 0 48.839v0 0zM775.321 133.91899999999998c-13.828-28.98-37.218-52.37-66.198-66.198-18.241-8.679-38.542-13.975-60.166-13.975-77.524 0-140.339 62.815-140.339 140.339 0 77.524 62.815 140.339 140.339 140.339 77.524 0 140.339-62.815 140.339-140.339 0-21.625-5.296-41.925-13.975-60.166v0 0zM343.71 150.24900000000002h-114.449c-19.565 0-35.6 16.035-35.6 35.6s16.035 35.6 35.6 35.6h112.537c2.942 33.54 11.328 65.462 24.126 95.03h-136.662c-19.565 0-35.6 16.035-35.6 35.6s16.035 35.6 35.6 35.6h180.206c34.864 42.807 81.055 76.053 134.014 95.03h-314.22c-19.565 0-35.6 16.035-35.6 35.6s16.035 35.6 35.6 35.6h548.854c19.565 0 35.6-16.035 35.6-35.6s-16.035-35.6-35.6-35.6h-26.921c96.061-34.571 169.908-115.774 194.327-216.247v512.519c0 59.43-48.545 107.977-107.977 107.977h-667.717c-59.43 0.147-107.977-48.545-107.977-107.977v-771.427c0-59.43 48.545-107.977 107.977-107.977h391.598c-113.861 33.246-200.506 130.778-217.718 250.67v0 0zM229.261 720.727h548.854c19.565 0 35.6-16.035 35.6-35.6s-16.035-35.6-35.6-35.6h-548.854c-19.565 0-35.6 16.035-35.6 35.6s16.035 35.6 35.6 35.6v0 0z"  horiz-adv-x="1024" />

    
    <glyph glyph-name="ul-wenjian" unicode="&#58901;" d="M682.465 877.606c27.662 0 54.149-5.216 79.517-15.712 26.537-10.721 49.987-26.33 70.309-46.82 20.595-20.933 36.089-44.422 46.421-70.523 10.212-25.143 15.313-51.91 15.313-80.233 0-28.257-5.101-55.028-15.313-80.183-10.333-26.106-25.826-49.589-46.421-70.523l-390.485-393.762c-11.999-12.064-26.094-21.495-42.495-28.443-15.925-6.204-31.807-9.312-47.683-9.312-15.996 0-31.884 3.102-47.759 9.312-16.379 6.942-30.529 16.444-42.429 28.443-12.43 12.479-21.637 26.586-27.874 42.418-6.221 15.166-9.323 31.217-9.323 48.142 0 17.165 3.097 33.309 9.323 48.475 6.231 15.609 15.439 29.77 27.874 42.478l360.377 362.998c8.394 8.437 18.448 12.714 30.102 12.714 11.551 0 21.485-4.276 29.885-12.714 8.432-8.498 12.649-18.492 12.649-30.092 0-11.835-4.217-21.938-12.649-30.436l-360.383-362.998c-8.171-8.22-12.217-18.367-12.217-30.426 0-11.775 4.047-21.829 12.217-30.037 8.885-8.486 18.885-12.708 30.212-12.708 11.217 0 21.315 4.222 30.102 12.708l390.589 393.702c24.548 24.767 36.81 54.859 36.81 90.292 0 35.427-12.26 65.525-36.81 90.233-25.22 24.991-55.143 37.487-89.855 37.487-34.919 0-64.738-12.496-89.506-37.487l-391.594-392.708c-28.737-28.899-49.136-66.116-57.269-107.725 0.455 11.218-4.711-15.652-4.711-43.756 0-27.596 5.167-54.471 15.559-80.506 10.66-26.559 26.089-50.048 46.421-70.582 20.988-20.949 44.428-36.651 70.299-47.099 25.87-10.492 52.522-15.723 79.97-15.723 27.317 0 53.969 5.232 79.856 15.723 25.87 10.448 49.305 26.149 70.293 47.099l389.934 393.145c8.437 8.437 18.432 12.659 30.207 12.659 11.43 0 21.425-4.217 29.759-12.659 8.444-8.498 12.659-18.547 12.659-30.092 0-11.835-4.217-21.987-12.659-30.442l-389.874-393.079c-28.497-28.787-61.358-50.714-98.457-65.874-35.373-14.707-72.63-22.036-111.717-22.036-38.928 0-76.191 7.329-111.728 22.036-37.153 15.155-69.965 37.088-98.517 65.874-28.262 28.525-49.922 61.527-64.969 98.932-14.549 36.105-21.884 73.635-21.884 112.624 0 39.257 7.334 76.797 21.884 112.661 14.817 36.985 36.421 70.08 64.969 99.298h0.345l391.255 392.691c20.322 20.54 43.631 36.154 69.91 46.82 25.87 10.508 52.369 15.723 79.561 15.723z"  horiz-adv-x="1024" />

    
    <glyph glyph-name="cuowu" unicode="&#58919;" d="M512 864c-262.4 0-480-217.6-480-480s217.6-480 480-480 480 217.6 480 480-217.6 480-480 480zM716.8 249.6c19.2-19.2 19.2-44.8 0-64s-44.8-19.2-64 0l-134.4 134.4-140.8-140.8c-19.2-19.2-51.2-19.2-70.4 0s-19.2 51.2 0 70.4l140.8 140.8-134.4 134.4c-19.2 19.2-19.2 44.8 0 64s44.8 19.2 64 0l134.4-134.4 140.8 140.8c19.2 19.2 51.2 19.2 70.4 0s19.2-51.2 0-70.4l-140.8-140.8 134.4-134.4z"  horiz-adv-x="1024" />

    
    <glyph glyph-name="kaiyan" unicode="&#58997;" d="M512 711.6800000000001c-207.53066667 0-387.75466667-136.53333333-458.752-327.68 70.99733333-191.14666667 251.22133333-327.68 458.752-327.68s387.75466667 136.53333333 458.752 327.68c-70.99733333 191.14666667-251.22133333 327.68-458.752 327.68m0-546.13333333c-114.688 0-207.53066667 98.304-207.53066667 218.45333333S397.312 602.4533333300001 512 602.4533333300001s207.53066667-98.304 207.53066667-218.45333333-92.84266667-218.45333333-207.53066667-218.45333333m0 349.52533333c-70.99733333 0-125.61066667-54.61333333-125.61066667-131.072s54.61333333-131.072 125.61066667-131.072 125.61066667 54.61333333 125.61066667 131.072-54.61333333 131.072-125.61066667 131.072"  horiz-adv-x="1024" />

    
    <glyph glyph-name="shangcheng" unicode="&#58897;" d="M95.744 815.104c-5.12-5.12-8.704-12.288-8.704-16.384 0-5.12 83.456-309.248 140.8-515.072 8.704-30.72 23.04-50.176 45.056-62.464 14.848-7.68 38.912-8.704 259.584-8.704s244.736 1.024 259.584 8.704c20.48 11.264 35.84 31.232 42.496 54.784 101.888 372.736 105.472 388.096 90.112 411.648-5.12 7.168-15.872 15.36-24.576 18.432-23.552 8.192-629.76 7.68-637.952-0.512-3.584-3.584-6.144-11.776-6.144-18.944 0-24.576 71.68-279.552 80.384-285.696 6.656-5.12 45.056-6.656 151.04-6.656 135.68 0 142.848 0.512 152.576 10.24 12.8 12.8 12.8 23.04 0 35.84-9.728 9.728-16.896 10.24-138.24 10.24H374.272l-6.144 22.016c-3.072 11.776-15.36 57.856-27.648 102.4L318.976 655.36h278.016c244.736 0 278.528-1.024 278.528-7.68 0-4.096-19.456-78.848-43.008-165.376-24.064-87.04-44.544-165.888-46.592-175.616-1.536-9.728-6.656-22.016-10.752-27.648-7.168-9.728-14.336-10.24-234.496-11.776-140.288-1.024-231.936 0.512-240.128 3.584-9.728 4.096-14.848 10.752-18.944 27.136C246.272 432.64 140.8 803.84 135.168 813.056c-9.216 13.824-28.16 14.848-39.424 2.048zM342.528 154.112c-34.304-11.264-60.928-46.592-60.928-81.92 0-37.376 31.232-73.216 70.656-80.384 54.272-10.24 107.52 47.104 93.184 100.864-12.288 45.056-61.44 74.24-102.912 61.44zM676.864 153.6c-32.256-7.68-62.464-47.104-62.464-80.896 0-25.088 20.992-57.856 46.08-71.168 27.136-14.336 46.592-14.848 73.728-1.536 37.376 17.92 56.832 61.44 44.544 98.816-6.656 20.48-41.472 54.784-55.808 54.784-4.608 0-13.312 1.024-18.944 2.048-5.632 1.536-17.92 0.512-27.136-2.048z"  horiz-adv-x="1024" />

    
    <glyph glyph-name="daiqueren" unicode="&#59058;" d="M383.177006-1.194966H159.399383c-52.847625 0-95.90528 43.057655-95.90528 95.90528V734.07612c0 52.847625 43.057655 95.90528 95.90528 95.905281h511.49244c52.847625 0 95.90528-43.057655 95.905281-95.905281v-191.809537c0-17.682731-14.285355-31.968086-31.968086-31.968085-17.682731 0-31.968086 14.285355-31.968086 31.968085V734.07612c0 17.582447-14.385639 31.968086-31.968085 31.968086H159.399383c-17.582447 0-31.968086-14.385639-31.968085-31.968086v-639.365806c0-17.582447 14.385639-31.968086 31.968085-31.968085h223.777623c17.682731 0 31.968086-14.285355 31.968086-31.968086 0-17.683754-14.285355-31.969109-31.968086-31.969109zM686.875866-65.131137c-72.628134 0-140.860145 28.271904-192.109366 79.621409-51.349505 51.249221-79.621409 119.481232-79.621408 192.109365s28.271904 140.860145 79.621408 192.109366c51.249221 51.349505 119.481232 79.621409 192.109366 79.621409s140.860145-28.271904 192.109366-79.621409c51.349505-51.349505 79.621409-119.581516 79.621409-192.109366S930.334737 65.739493 878.985232 14.490272c-51.348482-51.250244-119.481232-79.621409-192.109366-79.621409z m0 479.524354c-114.586758 0-207.79358-93.207845-207.79358-207.79358s93.207845-207.79358 207.79358-207.79358 207.79358 93.207845 207.79358 207.79358-93.206822 207.79358-207.79358 207.79358zM798.765189 126.6784H670.891823c-17.682731 0-31.968086 14.285355-31.968085 31.968086V318.487937c0 17.682731 14.285355 31.968086 31.968085 31.968086 17.682731 0 31.968086-14.285355 31.968086-31.968086v-127.873366h95.90528c17.682731 0 31.968086-14.285355 31.968086-31.968085 0-17.682731-14.285355-31.968086-31.968086-31.968086zM606.955652 574.234669H223.335554c-17.682731 0-31.968086 14.285355-31.968085 31.968086s14.285355 31.968086 31.968085 31.968085h383.619075c17.682731 0 31.968086-14.285355 31.968085-31.968085s-14.285355-31.968086-31.967062-31.968086zM383.177006 382.424108H223.335554c-17.682731 0-31.968086 14.285355-31.968085 31.968086 0 17.682731 14.285355 31.968086 31.968085 31.968086h159.841452c17.682731 0 31.968086-14.285355 31.968086-31.968086 0-17.681708-14.285355-31.968086-31.968086-31.968086zM319.240835 190.614571h-95.905281c-17.682731 0-31.968086 14.285355-31.968085 31.968086 0 17.682731 14.285355 31.968086 31.968085 31.968086h95.905281c17.682731 0 31.968086-14.285355 31.968085-31.968086 0-17.681708-14.285355-31.968086-31.968085-31.968086z"  horiz-adv-x="1024" />

    
    <glyph glyph-name="biyan" unicode="&#59781;" d="M512 597.333333c117.76 0 213.333333-95.573333 213.333333-213.333333 0-27.733333-5.546667-53.76-15.36-78.08l124.586667-124.586667c64.426667 53.76 115.2 123.306667 146.346667 202.666667-73.813333 187.306667-256 320-469.333334 320-59.733333 0-116.906667-10.666667-169.813333-29.866667l92.16-92.16C458.24 591.786667 484.266667 597.333333 512 597.333333zM85.333333 713.813333l97.28-97.28 19.626667-19.626666A503.637333 503.637333 0 0 1 42.666667 384c73.813333-187.306667 256-320 469.333333-320 66.133333 0 129.28 12.8 186.88 35.84l17.92-17.92L841.813333-42.666667 896 11.52 139.52 768 85.333333 713.813333zM321.28 477.866667l66.133333-66.133334c-2.133333-8.96-3.413333-18.346667-3.413333-27.733333 0-70.826667 57.173333-128 128-128 9.386667 0 18.773333 1.28 27.733333 3.413333l66.133334-66.133333c-28.586667-14.08-60.16-22.613333-93.866667-22.613333-117.76 0-213.333333 95.573333-213.333333 213.333333 0 33.706667 8.533333 65.28 22.613333 93.866667z m183.893333 33.28l134.4-134.4 0.853334 6.826666c0 70.826667-57.173333 128-128 128l-7.253334-0.426666z"  horiz-adv-x="1024" />

    
    <glyph glyph-name="jiantou-left" unicode="&#58892;" d="M751.4336 384.00426667l-478.86826667 444.6496 0-889.3056 478.86826667 444.656z"  horiz-adv-x="1024" />

    
    <glyph glyph-name="shenpi" unicode="&#58931;" d="M215.28125 177.28125c-21.09375 0-38.671875 17.578125-38.671875 38.671875s17.578125 38.671875 38.671875 38.671875h175.78125c21.09375 0 38.671875-17.578125 38.671875-38.671875s-17.578125-38.671875-38.671875-38.671875h-175.78125zM130.203125-4.828125c-37.265625 0-68.203125 30.9375-68.203125 68.90625V765.09375C62 803.0625 92.9375 834 130.203125 834h665.859375c37.96875 0 68.203125-30.9375 68.203125-68.90625v-152.578125c0-14.765625-11.953125-27.421875-26.71875-27.421875-14.765625 0-26.71875 11.953125-26.71875 27.421875V765.09375c0 7.734375-6.328125 14.0625-14.0625 14.0625H130.203125c-7.734375 0-14.0625-6.328125-14.0625-14.0625v-701.71875c0-7.734375 6.328125-14.0625 14.0625-14.0625h281.953125c14.765625 0 26.71875-11.953125 26.71875-27.421875 0-14.765625-11.953125-27.421875-26.71875-27.421875H130.203125zM215.28125 569.625c-21.09375 0-38.671875 17.578125-38.671875 38.671875s17.578125 38.671875 38.671875 38.671875h476.015625c21.09375 0 38.671875-17.578125 38.671875-38.671875s-17.578125-38.671875-38.671875-38.671875H215.28125zM215.28125 373.453125c-21.09375 0-38.671875 17.578125-38.671875 38.671875s17.578125 38.671875 38.671875 38.671875h238.359375c21.09375 0 38.671875-17.578125 38.671875-38.671875s-17.578125-38.671875-38.671875-38.671875H215.28125zM512.703125-66c-14.765625 0-26.71875 11.953125-26.71875 27.421875v125.15625c0 14.765625 11.953125 27.421875 26.71875 27.421875h18.28125l139.21875 197.578125-5.625 4.21875c-30.9375 21.09375-49.21875 56.25-49.21875 93.515625 0 62.578125 50.625 113.203125 112.5 113.203125s112.5-50.625 112.5-113.203125c0-37.265625-18.28125-72.421875-49.21875-93.515625l-5.625-4.21875 139.21875-197.578125h18.28125c14.765625 0 26.71875-11.953125 26.71875-27.421875v-125.15625c0-7.03125-2.8125-14.0625-7.734375-18.984375-4.921875-4.921875-11.953125-7.734375-18.984375-7.734375H512.703125z m26.71875 54.84375h376.171875v70.3125H539.421875v-70.3125z m58.359375 125.15625h260.859375L745.4375 274.3125h-35.15625l-112.5-160.3125zM727.859375 468.375c-32.34375 0-58.359375-26.71875-58.359375-59.0625 0-32.34375 26.015625-59.0625 58.359375-59.0625 32.34375 0 58.359375 26.71875 58.359375 59.0625 0 33.046875-26.015625 59.0625-58.359375 59.0625z"  horiz-adv-x="1032" />

    
    <glyph glyph-name="icon-test" unicode="&#58933;" d="M32 350.656c0-49.408 12.992-88.32 38.912-116.672 25.92-28.224 61.568-42.368 106.88-42.368 36.608 0 66.688 10.496 90.112 31.36s38.016 48 43.712 81.344h-66.176c-4.352-15.744-9.856-27.648-16.448-35.52-11.968-14.656-29.376-22.016-52.224-22.016-0.396-0.008-0.863-0.013-1.331-0.013-21.628 0-40.936 9.934-53.61 25.487-14.563 17.278-21.795 43.006-21.795 77.31s6.848 60.864 20.544 79.616 32.384 28.16 56.064 28.16c23.296 0 40.896-6.656 52.736-19.968 6.656-7.424 12.032-18.496 16.32-33.216h66.56c-1.024 19.136-8.256 38.144-21.824 57.088-24.512 33.792-63.296 50.688-116.288 50.688-39.616 0-72.256-12.608-97.92-37.824-29.504-28.928-44.224-70.080-44.224-123.456zM505.408 452.928c13.696 0 24-1.728 30.848-5.376 12.096-6.4 18.24-18.816 18.24-37.376 0-17.152-6.272-28.608-18.88-34.432-7.104-3.328-17.728-4.992-32-4.992h-71.68v82.176h73.472zM519.232 506.112h-152.32v-305.984h65.024v120h65.024c18.56 0 31.168-3.264 37.888-9.792s10.24-19.52 10.496-38.976l0.512-28.416c0.211-15.865 2.967-31.017 7.876-45.163l72.572 2.411v7.616c-6.746 4.005-11.444 10.854-12.453 18.851-0.925 5.591-1.584 13.698-1.584 21.958 0 1.786 0.031 3.565 0.092 5.336l-0.007 20.223c0 21.504-3.008 37.44-9.152 47.872s-16.576 18.496-31.168 24.192c17.472 5.824 30.144 15.744 37.76 29.824 7.2 12.509 11.469 27.496 11.524 43.476-0.004 11.436-1.988 22.124-5.892 31.596-7.023 16.293-17.818 29.816-31.329 39.899 4.32-1.579-10.434 7.447-27.192 11.117 0.857 0.887-15.911 3.511-37.671 3.959zM838.72 265.472l-57.984 240.64h-96.896v-305.984h62.016v206.912c0 6.016 0 14.336-0.128 25.088l-0.256 24.832 59.904-256.832h64.768l60.352 256.832-0.256-24.832-0.256-25.088v-206.912h62.016v305.984h-95.744l-57.536-240.64zM142.656 576c70.833 134.349 209.56 224.37 369.312 224.37s298.479-90.020 368.22-222.102l71.62-2.268c-74.176 169.472-243.072 288-439.808 288s-365.696-118.528-439.872-288h70.528zM840 128c-76.739-98.031-195.081-160.446-328-160.446s-251.261 62.416-327.314 159.537l-78.254 0.909c86.172-135.47 235.51-224.050 405.536-224.050 170.026 0 319.364 88.58 404.381 222.11l-76.349 1.94z"  horiz-adv-x="1024" />

    
    <glyph glyph-name="zhi" unicode="&#58923;" d="M429.79306667 375.46666667c26.0448-33.06666667 54.7168-59.29706667 85.98293333-80.12053334C548.32533333 316.16959999999995 578.30933333 342.4 605.6672 375.46666667H429.79306667zM512.8448 864.00106667c-265.09653333 0-480-214.90346667-480-480s214.90346667-480 480-480 480 214.90346667 480 480-214.90346667 480-480 480z m202.256-709.61493334C630.4 170.02026666999996 563.9584 188.91946667000002 515.776 211.05706667000004c-58.62506667-26.04586667-127.0208-46.22826667-205.1872-60.5792-7.81653333 18.2592-19.54133333 41.70986667-35.17546667 70.34986666 66.4416 9.09866667 121.79946667 21.6256 166.10453334 37.25866667C402.43413333 289.35360000000003 369.85493333 328.53333333 343.80906667 375.46666667H312.53333333v68.26666666h160v49.06666667H289.06666667v70.4h183.46666666v54.4h82.13333334v-54.4h183.46666666v-70.4H554.66666667v-49.06666667h136.53333333v-72.43413333c-30.93333333-48.21226667-64.2624-85.34186667-99.4368-111.38773333 45.5872-15.63306667 98.46293333-26.7168 158.4-33.22133334-10.44266667-15.63306667-22.0544-39.7248-35.0624-72.304z"  horiz-adv-x="1024" />

    
    <glyph glyph-name="dingdan" unicode="&#59108;" d="M277.33344 810.666667V853.205333C277.33344 876.842667 296.320107 896 319.808107 896H704.21344C727.658773 896 746.666773 876.864 746.666773 853.205333V810.666667h149.397334C919.594773 810.666667 938.666773 791.488 938.666773 767.893333v-853.12A42.666667 42.666667 0 0 0 896.064107-128H127.936107A42.709333 42.709333 0 0 0 85.33344-85.226667V767.893333A42.666667 42.666667 0 0 0 127.936107 810.666667H277.33344z m0-85.333334H191.850773C180.330773 725.333333 170.666773 715.776 170.666773 704v-725.333333c0-11.626667 9.472-21.333333 21.184-21.333334h640.298667c11.52 0 21.184 9.557333 21.184 21.333334V704c0 11.626667-9.472 21.333333-21.184 21.333333H746.666773v-85.205333C746.666773 616.490667 727.680107 597.333333 704.192107 597.333333H319.786773C296.34144 597.333333 277.33344 616.469333 277.33344 640.128V725.333333z m85.333333 64.213334v-85.76c0-11.498667 9.6-21.12 21.482667-21.12h255.701333A21.290667 21.290667 0 0 1 661.33344 703.786667V789.546667c0 11.498667-9.6 21.12-21.482667 21.12H384.14944A21.290667 21.290667 0 0 1 362.666773 789.546667zM234.666773 448a42.666667 42.666667 0 0 0 42.602667 42.666667h469.461333c23.530667 0 42.602667-18.944 42.602667-42.666667a42.666667 42.666667 0 0 0-42.602667-42.666667H277.26944A42.538667 42.538667 0 0 0 234.666773 448z m0-170.666667a42.666667 42.666667 0 0 0 42.602667 42.666667h469.461333c23.530667 0 42.602667-18.944 42.602667-42.666667a42.666667 42.666667 0 0 0-42.602667-42.666666H277.26944A42.538667 42.538667 0 0 0 234.666773 277.333333z m0-170.666666c0 23.573333 19.050667 42.666667 42.496 42.666666h235.008c23.466667 0 42.496-18.944 42.496-42.666666 0-23.573333-19.050667-42.666667-42.496-42.666667H277.162773C253.696107 64 234.666773 82.944 234.666773 106.666667z"  horiz-adv-x="1024" />

    
    <glyph glyph-name="dingdanguanli" unicode="&#59109;" d="M835.734065 331.893251V707.964417c0 11.386599-9.276422 20.892843-20.746593 20.892842H731.269852v-83.446013C731.269852 622.261977 712.675222 603.500204 689.672202 603.500204H313.204072C290.242838 603.500204 271.627315 622.241084 271.627315 645.411246V728.857259H187.909695C176.62756 728.857259 167.163103 719.497266 167.163103 707.964417v-710.356647c0-11.386599 9.276422-20.892843 20.746592-20.892843H480.555741a41.785685 41.785685 0 1 0 0-83.57137H125.314739A41.827471 41.827471 0 0 0 83.591732-64.966294V770.53848A41.785685 41.785685 0 0 0 125.314739 812.42863H271.627315V854.088958C271.627315 877.238227 290.221945 896 313.224965 896H689.693095C712.654329 896 731.269852 877.25912 731.269852 854.088958V812.42863h146.312576C900.627234 812.42863 919.305435 793.645964 919.305435 770.53848V331.893251a41.785685 41.785685 0 0 0-83.57137 0zM355.198686 791.744716v-83.989228c0-11.261242 9.401779-20.683914 21.039092-20.683914h250.421611A20.851057 20.851057 0 0 1 647.698482 707.755488V791.744716c0 11.261242-9.401779 20.683914-21.039093 20.683914H376.237778A20.851057 20.851057 0 0 1 355.198686 791.744716zM229.84163 457.250306a41.785685 41.785685 0 0 0 41.723007 41.785685h459.767893c23.044805 0 41.723007-18.552844 41.723007-41.785685a41.785685 41.785685 0 0 0-41.723007-41.785685H271.564637A41.660328 41.660328 0 0 0 229.84163 457.250306z m0-334.285481c0 23.086591 18.845344 41.785685 41.973721 41.785685h166.766669a41.785685 41.785685 0 1 0 0-83.57137H271.836244A41.785685 41.785685 0 0 0 229.84163 122.964825z m0 167.14274c0 23.086591 18.657308 41.785685 41.618543 41.785686h230.155553c22.982127 0 41.618542-18.552844 41.618543-41.785686 0-23.086591-18.657308-41.785685-41.618543-41.785685H271.460173C248.478046 248.32188 229.84163 266.874725 229.84163 290.107565z m694.373623-176.816126c8.795887 0 16.045703-7.208031 15.983025-16.087489v-32.133192a16.087489 16.087489 0 0 0-16.045704-16.087489h-19.304986c-8.795887 0-18.176773-6.894638-20.851057-15.335346l-11.052314-26.909981c-4.157676-7.79303-2.465355-19.325879 3.760712-25.551947l13.705705-13.663919c6.267853-6.267853 6.267853-16.484453 0-22.752305l-22.773199-22.731413a16.087489 16.087489 0 0 0-22.71052 0l-13.622133 13.684812c-6.24696 6.226067-17.758916 7.918387-25.572839 3.718926l-26.909981-11.073207c-8.419816-2.611605-15.356239-11.992492-15.35624-20.830164v-19.221415a16.150167 16.150167 0 0 0-16.087488-16.066596h-32.133192a16.129274 16.129274 0 0 0-16.087489 16.066596v19.221415c0 8.837672-6.894638 18.218559-15.356239 20.830164l-26.951767 11.073207c-7.79303 4.199461-19.284094 2.507141-25.489268-3.718926l-13.705705-13.684812a16.087489 16.087489 0 0 0-22.71052 0l-22.752305 22.731413a16.129274 16.129274 0 0 0 0 22.752305l13.684811 13.663919c6.267853 6.226067 7.93928 17.758916 3.781605 25.551947l-11.114992 26.909981c-2.632498 8.440708-11.992492 15.335346-20.830164 15.377132h-19.284094a16.087489 16.087489 0 0 0-16.087489 16.066596v32.112299c0 8.879458 7.228924 16.087489 16.087489 16.087489h19.284094c8.837672 0 18.239452 6.894638 20.851057 15.335346l11.094099 26.951767c4.178569 7.813923 2.486248 19.284094-3.781605 25.551947l-13.663919 13.705704a16.087489 16.087489 0 0 0 0 22.71052l22.731413 22.71052c6.24696 6.267853 16.484453 6.267853 22.71052 0l13.726598-13.684812c6.267853-6.226067 17.696238-7.93928 25.489268-3.760711l26.930874 11.03142c8.461601 2.632498 15.356239 11.992492 15.356239 20.892843v19.284094c0 8.837672 7.249816 16.087489 16.087489 16.087488h32.133192c8.81678 0 16.087489-7.249816 16.087488-16.087488v-19.284094c0-8.858565 6.936424-18.239452 15.35624-20.851057l26.868195-11.073206c7.813923-4.178569 19.325879-2.465355 25.551947 3.760711l13.705704 13.663919a16.087489 16.087489 0 0 0 22.731413 0l22.773198-22.731412c6.267853-6.226067 6.267853-16.442667 0-22.731413l-13.705704-13.684812c-6.24696-6.24696-7.93928-17.738023-3.760712-25.510161l11.052314-26.951767c2.653391-8.440708 12.013384-15.335346 20.830164-15.335346h19.346772z m-113.970456-30.712479a80.353873 80.353873 0 1 1-160.728638 0 80.353873 80.353873 0 0 1 80.374765-80.353872 80.33298 80.33298 0 0 1 80.353873 80.332979z"  horiz-adv-x="1024" />

    
    <glyph glyph-name="jinggao" unicode="&#59070;" d="M1011.939556 121.799111c62.293333-109.226667 10.922667-197.859556-114.232889-197.859555H144.896c-125.383111 0-176.583111 88.462222-114.176 197.859555L408.462222 784.611556c62.293333 109.283556 163.214222 109.454222 225.564445 0l377.856-662.755556z m-447.260445 436.906667H457.955556l11.662222-359.025778h82.659555l12.344889 358.968889z m-53.361778-413.696c-16.896 0-31.232-5.461333-43.008-16.327111a51.996444 51.996444 0 0 1-17.635555-39.708445c0-15.075556 5.859556-28.103111 17.635555-38.968889 11.776-10.922667 26.168889-16.327111 43.008-16.327111 16.896 0 31.345778 5.404444 43.349334 16.327111a50.915556 50.915556 0 0 1 17.976889 38.968889 51.598222 51.598222 0 0 1-17.976889 39.708445 62.236444 62.236444 0 0 1-43.349334 16.327111z"  horiz-adv-x="1080" />

    
    <glyph glyph-name="shou" unicode="&#58891;" d="M495.7165625 359.57437500000003c-3.9084375 5.19-9.3553125 13.6790625-15.8578125 25.404375-6.534375 10.411875-11.593125 18.2278125-15.85875 23.4496875v-189.5540625c43.7334375 24.733125 75.1246875 48.181875 95.9803125 70.35-19.54125 31.265625-33.78 65.7703125-42.879375 103.57125-6.534375-10.4428125-13.5665625-21.495-21.3834375-33.2203125zM605.1509375 351.5540625c16.9153125 29.9540625 28.6396875 70.8459375 35.1740625 123.1134375h-72.30375c7.816875-48 20.1834375-89.25 37.1296875-123.1134375zM512.2671875 864.0009375c-265.096875 0-480-214.903125-480-480s214.903125-480 480-480 480 214.903125 480 480-214.903125 480-480 480zM702.8590625 152.431875c-39.084375 24.763125-71.0221875 49.52625-95.7553125 74.2584375-27.358125-26.045625-62.116875-52.09125-103.79625-78.1659375-11.724375 19.5421875-24.3740625 38.4421875-39.3084375 56.6709375v-52.66125h-73.6003125v115.1953125c-3.1996875-1.3115625-7.27875-3.9084375-13.783125-7.816875-39.084375-19.54125-63.2578125-33.22125-72.35625-41.038125l-31.4015625 74.2584375c13.0078125 11.72625 19.408125 26.045625 19.408125 42.991875v234.5428125h70.3996875v-236.4965625c1.066875 1.2815625 4.0959375 2.5959375 8.004375 3.9084375 2.595 1.2815625 9.061875 4.5496875 19.72875 9.770625v267.6178125h73.6003125v-171.8634375c35.2003125 54.7171875 58.8496875 113.341875 70.575 175.875l80.2340625-9.770625c-1.3115625-5.2209375-3.8521875-11.533125-7.7596875-19.3490625-1.3115625-7.816875-5.8059375-20.7571875-13.621875-38.89125h152.1740625v-76.8h-32.9709375c-6.534375-72.5334375-25.404375-134.735625-56.6709375-185.5453125 24.733125-23.4496875 56.6709375-44.895 95.7553125-64.43625-20.85375-26.0465625-37.1296875-50.0859375-48.8540625-72.255z"  horiz-adv-x="1024" />

    
    <glyph glyph-name="daishouhuo" unicode="&#58899;" d="M931.52-38.587999999999965c-14.746 86.053-134.25 86.053-148.995 0h-72.217c-33.297 0-33.904 8.058-33.904 39.834V219.26700000000005c0 89.246-9.578 82.1 65.07 82.1h219.087c32.535 0 34.512-6.385 34.512-37.858v-219.086c0-13.684 1.978-62.334-2.28-71.001-4.256-8.667-12.161-12.012-24.628-12.012h-36.641z m-297.381 0.304c-16.877 79.364-108.251 82.708-140.18 25.998-5.625-9.883-5.168-16.42-9.122-25.998-48.348-5.626-42.114 16.115-42.114 55.645 0 24.325-3.191 73.735 5.018 93.2 8.514 20.525 35.273 52.909 49.716 72.217 3.649 4.714 7.298 10.188 10.643 14.141 7.754 8.818 13.074 18.548 30.713 19.309l98.217-0.305c15.357-2.129 18.397-13.987 18.245-30.255v-196.432c0-15.508-5.17-27.365-21.133-27.519z m-42.722 127.255v84.685c-13.835 0.761-35.73 0.912-49.564 0.153-10.338-0.608-17.181-14.141-24.782-24.782-8.971-12.468-38.01-48.804-38.465-60.207 31.014-0.153 83.164-0.761 112.812 0.153zM549.193-1.490000000000009c-23.262-5.93-44.091-28.582-36.641-58.989 5.626-22.957 28.735-43.18 58.533-36.489 22.957 5.169 43.787 29.191 36.945 58.687-5.474 22.804-29.191 44.395-58.839 36.793z m304.683 0.911c-25.998-2.585-47.587-23.567-45.003-52.756 2.279-25.998 24.782-47.284 53.364-44.699 25.542 2.433 46.675 24.934 43.94 53.669-2.279 24.934-24.782 46.524-52.3 43.787zM43.364 640.7139999999999V-97.73000000000002h168.608V505.857h592.336v-120.415h168.608v253.14c0 9.123-17.636 13.835-24.629 17.181L904.5 676.592c-6.081 2.736-9.123 4.865-15.204 7.601-11.402 5.018-18.548 8.666-29.951 13.684-53.669 23.87-122.085 59.903-175.451 82.86l-162.679 76.78c-28.889 13.987-22.351 14.141-44.395 4.257l-145.5-73.435c-9.729-5.018-19.156-8.818-29.494-14.291L70.121 657.739c-6.233-3.191-26.758-8.818-26.758-17.028zM261.842 166.51h103.69v-89.7h-103.69z m0 119.805h103.69v-87.877h-103.69z"  horiz-adv-x="1024" />

    
    <glyph glyph-name="zhanghuguanli" unicode="&#58895;" d="M1003.89248 164.48v-72.96l-64-14.72-21.12-44.16 35.2-58.24-49.28-51.2-53.76 36.48-42.24-21.76-14.08-64H722.93248l-14.08 64-42.24 21.76-56.32-36.48-49.28 51.2 33.92 58.24-21.12 44.16-64 14.72v72.96l64 14.72 21.12 44.16-33.92 58.24 49.28 51.2 56.32-36.48 42.24 23.68 14.08 64h70.4l14.08-64 42.24-21.76 56.32 36.48 49.28-51.2-35.2-58.24 21.12-44.16 64-14.72z m-245.76 95.36a120.96 120.96 0 0 1-119.68-124.16 128 128 0 0 1 119.68-131.84 128 128 0 0 1 128 131.84 138.24 138.24 0 0 1-128 124.16z m-316.8 51.2a355.2 355.2 0 0 1-352-365.44H18.93248a428.8 428.8 0 0 0 274.56 409.6A304.64 304.64 0 0 0 159.73248 603.52 288 288 0 0 0 441.33248 896 288 288 0 0 0 722.93248 603.52a288 288 0 0 0-281.6-292.48z m0 512a211.84 211.84 0 0 1-211.2-219.52 211.2 211.2 0 1 1 422.4 0 211.84 211.84 0 0 1-211.2 219.52z"  horiz-adv-x="1024" />

    
    <glyph glyph-name="gou" unicode="&#58904;" d="M511.975625 864C246.89375 864 32 649.10625 32 384.024375c0-265.085625 214.89375-479.9765625 479.975625-479.9765625 265.085625 0 479.9765625 214.8909375 479.9765625 479.9765625C991.9521875 649.10625 777.0584375 864 511.975625 864z m275.3034375-355.475625L476.853125 198.0965625l-0.0103125-0.009375c-14.3109375-14.315625-36.133125-16.5496875-52.7915625-6.710625a43.65 43.65 0 0 0-8.64375 6.710625c-0.001875 0.00375-0.005625 0.005625-0.005625 0.005625L236.675 376.82062499999995c-16.9640625 16.9640625-16.9640625 44.4721875 0 61.4409375 16.9640625 16.9640625 44.473125 16.9640625 61.4371875 0l148.0171875-148.0171875L725.84375 569.95875c16.9659375 16.965 44.475 16.965 61.4390625 0 16.959375-16.9640625 16.959375-44.4703125-0.00375-61.434375z"  horiz-adv-x="1025" />

    
    <glyph glyph-name="daishenhe" unicode="&#59351;" d="M956.063 664.014L792.015 828.062c-4.688 4.688-12.284 4.688-16.972 0L686.23 739.25l-29.981-29.981-318.48-318.481c-0.145-0.145-0.271-0.302-0.401-0.455l-0.027 0.026-0.032-0.095c-1.267-1.518-1.896-3.438-1.91-5.488l-94.706-272.084 272.084 94.705c2.051 0.018 3.973 0.645 5.488 1.91l0.096 0.033-0.027 0.025c0.153 0.133 0.313 0.258 0.455 0.401L837.27 528.25l29.98 29.98 88.813 88.813c4.687 4.686 4.687 12.285 0 16.971z m-648.65-484.602l68.822 159.332 90.51-90.51-159.332-68.822zM693.02 655.528l90.51-90.509L512 293.489 421.49 384l271.53 271.528z m90.508 90.511l90.51-90.511-45.255-45.255-90.51 90.511 45.255 45.255zM128 0V768h512V832H76c-6.627 0-12-5.373-12-12v-872c0-6.628 5.372-12 12-12h417.818v64H128zM896 512h64v-109.818h-64zM768 320c-106.039 0-192-85.961-192-192s85.961-192 192-192 192 85.961 192 192-85.961 192-192 192z m0-320c-70.692 0-128 57.308-128 128s57.308 128 128 128 128-57.308 128-128-57.308-128-128-128zM800 108c0-6.627-5.373-12-12-12h-40c-6.627 0-12 5.373-12 12V212c0 6.627 5.373 12 12 12h40c6.627 0 12-5.373 12-12v-104zM814.837 40.107c-4.686-4.686-11.626-5.344-15.501-1.469l-60.811 60.812c-3.875 3.874-3.218 10.815 1.469 15.501l28.284 28.284c4.686 4.687 11.627 5.344 15.501 1.469l60.811-60.811c3.876-3.875 3.218-10.815-1.469-15.501l-28.284-28.285z"  horiz-adv-x="1024" />

    
    <glyph glyph-name="xinxi" unicode="&#58884;" d="M512 863.744c66.56 0 129.024-12.8 187.392-37.888 58.368-25.6 109.056-59.904 152.576-102.912s77.824-94.208 102.912-153.088c25.6-58.88 37.888-121.344 37.888-187.904s-12.8-129.024-37.888-187.392c-25.6-58.368-59.904-109.056-102.912-152.576-43.52-43.52-94.208-77.824-152.576-102.912-58.368-25.6-120.832-37.888-187.392-37.888s-129.024 12.8-187.904 37.888-109.568 59.904-153.088 102.912c-43.52 43.52-77.824 94.208-102.912 152.576s-37.888 120.832-37.888 187.392 12.8 129.024 37.888 187.904S128 679.424 171.52 722.432s94.208 77.824 153.088 102.912S445.44 863.744 512 863.744z m57.856-415.232c0 17.408-5.632 31.744-16.384 43.52-11.264 11.776-25.088 17.92-41.472 17.92-16.384 0-30.208-6.144-41.984-17.92-11.264-11.776-17.408-26.112-17.408-43.52v-359.424c0-17.408 5.632-30.72 17.408-41.472s25.6-15.36 41.984-15.36c16.384 0 30.208 5.12 41.984 15.872 11.264 10.752 17.408 24.576 17.408 41.984l-1.536 358.4z m-57.856 133.12c20.992 0 38.4 7.168 53.248 22.016 14.848 14.848 22.016 32.256 22.016 53.248s-7.168 38.4-22.016 53.248c-14.848 14.848-32.256 22.016-53.248 22.016s-38.4-7.168-53.76-22.016-22.528-32.256-22.528-53.248c0-20.992 7.68-38.4 22.528-53.248 15.36-14.848 33.28-22.016 53.76-22.016z"  horiz-adv-x="1024" />

    
    <glyph glyph-name="yonghu" unicode="&#58916;" d="M939.06299765 94.67328537000003c0 136.26180393-32.7595855 345.42294155-213.56515682 345.42294156-19.16693365 0-100.07298655-83.79416779-221.02946449-83.79416778-121.04062293 0-201.85605815 83.79416779-221.02816996 83.79416778-180.79909863 0-213.55609505-209.15984308-213.55609505-345.42294156 0-97.63666551 66.68296091-156.12649371 164.77789297-156.12649371h539.52859908c98.18296067 0.00129454 164.87109973 58.49112272 164.87109973 156.12649371ZM741.51904649 632.99666931c0 127.78257825-106.19485804 231.48286103-237.04937561 231.48286104-130.85322303 0-237.04808107-103.70157733-237.04808107-231.48286104s106.19485804-231.48286103 237.04808107-231.48286104c130.85451757 0.00129454 237.04937561 103.70287186 237.04937561 231.48286104Z"  horiz-adv-x="1024" />

    
    <glyph glyph-name="tuichu" unicode="&#58908;" d="M512-101.574c-105.703 0-204.8 33.032-290.684 99.097C118.916 76.8 52.852 189.11 33.032 317.935c-16.516 128.826 16.516 254.349 92.49 360.052 26.426 36.336 59.459 69.368 95.794 95.794 13.213 9.91 36.336 6.606 46.245-6.607 9.91-13.213 6.607-36.335-6.606-46.245-33.032-23.123-59.458-52.852-82.58-82.58C112.31 549.16 82.58 440.154 99.096 327.844c16.516-109.006 72.67-208.103 161.858-274.168 89.187-66.064 198.193-95.793 310.503-79.277 109.007 16.516 208.103 72.671 274.168 161.858 66.064 89.187 95.793 198.194 79.277 310.503-16.516 109.007-72.67 208.104-161.858 274.168-13.213 9.91-16.516 33.032-6.606 46.245 9.91 13.213 33.032 16.516 46.245 6.607 102.4-79.278 168.464-191.587 188.284-320.413 16.516-128.826-16.516-254.349-92.49-360.052S706.89-75.148 578.064-94.968c-19.82-3.303-42.942-6.606-66.065-6.606zM512 413.729c-19.82 0-33.032 13.213-33.032 33.032V833.24c0 19.82 13.213 33.032 33.032 33.032 19.82 0 33.032-13.213 33.032-33.032V446.76c0-16.516-13.213-33.032-33.032-33.032z"  horiz-adv-x="1024" />

    
    <glyph glyph-name="morentouxiang" unicode="&#58972;" d="M1009.802378 392.081297c0-277.504-226.387027-503.918703-503.918702-503.918702C228.379676-119.14378399999998 1.964973 114.549622 1.964973 392.081297c0 211.801946 131.459459 401.684757 321.34227 474.693189C381.730595 888.693622 440.153946 896 505.911351 896s124.153081-14.612757 182.576433-36.531892c189.882811-73.008432 321.34227-255.584865 321.34227-467.386811zM308.722162 501.621622c0-87.621189 43.810595-160.657297 109.540324-197.18919 29.197838-14.585081 58.395676-29.197838 87.62119-29.197837s58.423351 7.306378 87.648865 21.919135c65.72973 36.504216 109.540324 109.540324 109.540324 197.161513 0 124.153081-87.621189 219.108324-197.189189 219.108325-109.540324 7.306378-197.161514-94.927568-197.161514-211.801946z m197.161514-584.233514c146.072216 0 277.531676 65.72973 365.18054 175.270054-7.306378 87.621189-94.955243 153.350919-211.801946 189.855135-36.531892-36.504216-94.927568-65.702054-153.378594-65.702054-65.72973 0-116.846703 21.919135-160.657298 65.72973-109.540324-29.225514-197.189189-94.927568-211.801946-175.270054 80.342486-116.846703 219.108324-189.882811 372.459244-189.882811z"  horiz-adv-x="1024" />

    
    <glyph glyph-name="zhuanchu" unicode="&#58888;" d="M987.32032 451.30240002l-0.09216-0.01024002c-0.87552 17.85856-15.59040001 32.08192-33.664 32.08192002a33.75104 33.75104 0 0 1-33.75104-33.75104002c0-1.53600001 0.13824-3.04128 0.33792-4.52096l-0.14336001-0.01536c2.95936-19.93216001 4.49024-40.33024 4.49024001-61.09184 0-227.81951998-184.68352001-412.49792-412.49792-412.49792S99.50208 156.18048002 99.50208 384 284.18048002 796.49792 512 796.49792c23.35744 0 46.24896-1.99679999 68.54655999-5.72415999a33.79200001 33.79200001 0 0 1 7.38816004-0.83456002 33.75104 33.75104 0 0 1 33.75103997 33.75104001c0 15.86176001-10.9568 29.1328-25.70752 32.74752l0.04607999 0.24064a474.03007998 474.03007998 0 0 1-23.99743997 3.6096A486.0672 486.0672 0 0 1 512 863.99999999C246.90176001 863.99999999 32.00000001 649.09823999 32.00000001 384s214.90176-479.99999999 479.99999999-479.99999999 479.99999999 214.90176 479.99999999 479.99999999a484.42367999 484.42367999 0 0 1-4.67967999 67.30240002zM597.88288001 591.2576L511.73888003 502.04672002 425.56416 591.2832000000001a33.75104 33.75104 0 1 1-48.55807999-46.88896l89.70751997-92.89728H392.00256a33.75104 33.75104 0 1 1 0-67.49696h86.01600001v-60.00128006h-86.01600001a33.75104 33.75104 0 1 1 0-67.50207995h86.01600001v-129.14175999a33.75104 33.75104 0 1 1 67.50207999 0v129.14175999h86.48192a33.75104 33.75104 0 1 1 0 67.50207995h-86.48192V384h86.48192a33.75104 33.75104 0 1 1 0 67.50208001h-75.24352001l89.68192001 92.86656001a33.75104 33.75104 0 1 1-48.55807999 46.88895998zM713.61023999 639.0016000200001h126.38208001v-86.90688002c0-18.63168 10.68544-23.06047999 23.86432-9.88160001l106.07103996 106.07104001a33.7408 33.7408 0 0 1 0 47.72352l-106.07103996 106.07103998c-13.17888 13.17888-23.86432001 8.7552-23.86432-9.88159998v-85.70368h-126.38207998a33.75104 33.75104 0 1 1 0-67.49184001z"  horiz-adv-x="1024" />

    
    <glyph glyph-name="jiantoux2" unicode="&#58894;" d="M509.952-64.51199999999994l-43.52 43.52 401.408 401.408-401.408 401.92 43.52 43.008 444.928-444.928zM205.824-64.51199999999994l-43.008 43.52 401.408 401.408-401.408 401.92 43.008 43.008 445.44-444.928z"  horiz-adv-x="1024" />

    
    <glyph glyph-name="tixing" unicode="&#59000;" d="M901.66613333 93.32053332999999A261.66613333 261.66613333 0 0 1 802.13333333 288.42666667000003V503.46666667a258.2528 258.2528 0 0 1-199.68 253.1328v5.12a100.1472 100.1472 0 1 1-200.22613333 0v-5.12A258.2528 258.2528 0 0 1 201.9328 503.46666667V288.42666667000003A261.66613333 261.66613333 0 0 1 102.4 93.32053332999999h799.26613333zM480.73386667-93.86666666999997h24.9856a130.2528 130.2528 0 0 1 127.45386666 113.80053334H371.5072c8.192-64.37546667 62.53226667-112.91306667 127.3856-113.80053334h-18.15893333z"  horiz-adv-x="1024" />

    
    <glyph glyph-name="xiangshang" unicode="&#58880;" d="M853.333 372.62199999999996l-39.822-45.51-301.511 256-301.511-256-39.822 39.821L512 668.444z"  horiz-adv-x="1024" />

    
    <glyph glyph-name="xiangxia" unicode="&#58881;" d="M853.333 622.933l-39.822 45.511-301.511-256-301.511 256-39.822-39.822L512 327.112z"  horiz-adv-x="1024" />

    
    <glyph glyph-name="xiangyou" unicode="&#58882;" d="M386.844 725.333l-45.51-39.822 256-301.511-256-301.511 39.822-39.822L682.666 384z"  horiz-adv-x="1024" />

    
    <glyph glyph-name="xiangzuo" unicode="&#58883;" d="M637.156 725.333l45.51-39.822-256-301.511 256-301.511-39.822-39.822L341.334 384z"  horiz-adv-x="1024" />

    
    <glyph glyph-name="rongzia" unicode="&#59177;" d="M402.97813333 34.95253333000005c25.46346667 0 51.13173333 1.16053333 79.59893334 3.61813334a318.12266667 318.12266667 0 0 0-64.17066667 113.80053333 227.87413333 227.87413333 0 0 0-15.49653333-0.6144c-69.35893333 0-137.07946667 7.91893333-195.92533334 22.86933333-49.62986667 12.62933333-89.97546667 29.4912-117.9648 49.152l0.8192-110.7968c4.5056-13.312 30.24213333-33.31413333 89.7024-50.65386666 60.55253333-17.6128 139.8784-27.37493333 223.4368-27.37493334zM404.00213333 275.31946667a309.52106667 309.52106667 0 0 0 34.47466667 119.05706666l-4.5056-0.4096-13.99466667-1.024-6.48533333-0.4096c-20.34346667-1.2288-42.25706667-2.32106667-65.1264-2.32106666a1044.75306667 1044.75306667 0 0 0-48.67413333 1.29706666l-4.84693334 0.27306667a937.5744 937.5744 0 0 0-43.6224 3.072 1105.3056 1105.3056 0 0 0-42.8032 5.18826667l-3.8912 0.54613333-4.096 0.6144a618.76906667 618.76906667 0 0 0-79.18933333 16.72533333L120.35413333 418.13333333l-5.3248 1.50186667a392.8064 392.8064 0 0 0-33.92853333 11.33226667l-2.73066667 1.16053333-0.34133333 0.13653333a262.48533333 262.48533333 0 0 0-26.96533333 12.42453334l-1.36533334 0.68266666a199.0656 199.0656 0 0 0-14.60906666 8.53333334c-0.13653333-23.3472 0.13653333-71.33866667 0.4096-103.6288 0.06826667-6.48533333 10.51306667-15.42826667 31.06133333-26.55573334l1.2288-0.68266666c20.61653333-11.19573333 44.10026667-18.56853333 64.3072-24.3712 93.3888-26.35093333 193.536-26.55573333 271.90613333-23.3472zM717.2096 521.76213333a272.93013333 272.93013333 0 0 1-272.65706667-272.5888 272.9984 272.9984 0 0 1 272.65706667-272.65706666 270.88213333 270.88213333 0 0 1 192.78506667 79.94026666A270.67733333 270.67733333 0 0 1 989.86666667 249.17333333a272.93013333 272.93013333 0 0 1-272.65706667 272.5888z m93.73013333-260.98346666v-41.30133334h-63.2832v-20.20693333h63.2832v-41.71093333h-63.2832v-51.88266667h-47.85493333v51.95093333H634.19733333v41.71093334h65.67253334v20.13866666H634.19733333v41.3696h50.31253334l-68.26666667 117.1456h54.61333333l2.18453334-4.02773333c25.1904-45.94346667 41.984-77.4144 51.54133333-96.73386667 3.14026667 6.3488 7.30453333 14.47253333 12.6976 24.71253334l41.23306667 75.9808 56.66133333 0.34133333-72.704-117.48693333h48.46933333zM68.608 483.1232c59.8016-31.60746667 132.9152-43.48586667 201.25013333-47.7184a534.528 534.528 0 0 0-65.19466666 17.27146667c-59.73333333 20.34346667-94.208 46.8992-102.53653334 78.91626666l-0.2048 0.95573334-0.54613333 35.84c-49.42506667-18.36373333-67.24266667-37.888-67.24266667-49.5616v-0.34133334c0.2048-17.2032 26.0096-30.9248 34.47466667-35.36213333zM227.328 649.96693333c61.16693333-19.18293333 142.7456-29.76426667 229.85386667-29.76426666 35.36213333 0 71.2704 2.048 109.7728 6.3488l3.41333333 0.4096c9.48906667 1.09226667 18.432 2.11626667 27.0336 3.4816 5.66613333 0.8192 11.0592 1.77493333 16.31573333 2.73066666l5.25653334 0.95573334 6.89493333 1.2288c7.3728 1.36533333 14.40426667 2.59413333 20.82133333 4.096a197.97333333 197.97333333 0 0 1 10.10346667 2.59413333l4.36906667 1.16053333c20.20693333 5.18826667 37.888 10.78613333 52.49706666 16.72533334l2.6624 1.024 1.91146667 0.75093333c6.9632 3.00373333 12.83413333 6.21226667 18.50026667 9.28426667l1.6384 0.88746666a119.87626667 119.87626667 0 0 1 17.47626666 11.60533334c1.97973333 1.70666667 4.23253333 3.75466667 6.07573334 5.7344l0.2048 0.2048a55.36426667 55.36426667 0 0 1 5.3248 6.07573333 21.7088 21.7088 0 0 1 4.02773333 10.30826667c0 14.19946667-22.18666667 36.31786667-84.44586667 55.84213333-61.16693333 19.2512-142.81386667 29.83253333-229.85386666 29.83253333s-168.61866667-10.58133333-229.7856-29.76426666c-62.2592-19.59253333-84.44586667-41.71093333-84.44586667-55.9104 0-14.19946667 22.18666667-36.31786667 84.3776-55.84213334zM340.7872 230.46826667000005a929.10933333 929.10933333 0 0 0-140.56106667 10.0352 606.208 606.208 0 0 0-69.56373333 14.81386666c-3.82293333 1.09226667-7.7824 1.91146667-11.94666667 2.79893334l-5.87093333 1.29706666c15.49653333-11.33226667 39.45813333-23.68853333 73.45493333-34.74773333 42.12053333-13.65333333 113.93706667-29.96906667 216.54186667-29.96906667l3.4816 0.06826667a339.49013333 339.49013333 0 0 0-3.61813333 37.81973333 1159.85066667 1159.85066667 0 0 0-61.91786667-2.11626666zM622.52373333 591.0527999999999l-1.70666666-0.27306667-1.2288-0.2048c-6.62186667-1.16053333-13.312-2.11626667-20.75306667-3.20853333l-1.70666667-0.27306667a619.58826667 619.58826667 0 0 0-17.6128-2.4576h-0.13653333a1059.77173333 1059.77173333 0 0 0-122.12906667-7.30453333c-65.9456 0-133.25653333 6.5536-189.57653333 18.36373333-53.17973333 11.19573333-95.6416 26.8288-124.17706667 45.53386667l0.27306667-43.14453333 0.47786667-59.8016c4.43733333-13.24373333 30.17386667-33.24586667 89.63413333-50.5856 60.55253333-17.68106667 139.81013333-27.37493333 223.232-27.37493334 7.3728 0 14.88213333 0.4096 22.1184 0.8192l6.144 0.34133334a319.62453333 319.62453333 0 0 0 101.51253333 74.5472 307.67786667 307.67786667 0 0 0 183.77386667 24.09813333l0.54613333 81.16906667c-41.02826667-26.96533333-102.12693333-42.05226667-148.34346666-50.10773334l-0.34133334-0.13653333z"  horiz-adv-x="1024" />

    
    <glyph glyph-name="jianguan" unicode="&#58965;" d="M512-96S71.96 46.139999999999986 71.96 296.70000000000005V718.56L512 864l440.04-145.44v-421.8C952.04 46.25999999999999 512-96 512-96M512 648C426.2 648 356.66 583.56 356.66 504 356.66 424.44 426.2 360 512 360c85.74 0 155.34 64.44 155.34 144 0 79.56-69.6 144-155.34 144m51.72-360H460.22c-83.82 0-158.16-37.14-205.5-94.44C343.46 91.44000000000005 512 35.39999999999998 512 35.39999999999998s168.48 56.04 257.22 158.16C721.94 250.86 647.6 288 563.72 288"  horiz-adv-x="1024" />

    
    <glyph glyph-name="xieyiguanli" unicode="&#58905;" d="M819.09333333 267.20000000000005c-20.16 0-34.02666667-16.32-34.02666666-36.37333333V-25.600000000000023H143.36c-20.05333333 0-40.96 16.32-40.96 36.37333333V793.6h603.09333333c20.16 0 36.37333333 14.29333333 36.37333334 34.34666667 0 20.16-16.32 33.92-36.37333334 33.92H70.50666667C50.45333333 861.86666667 34.13333333 848.21333333 34.13333333 828.05333333v-817.28c0-60.26666667 48.96-104.64 109.22666667-104.64h673.49333333c20.16 0 36.37333333 16.32 36.37333334 36.37333334V230.72000000000003c0.10666667 20.16-14.08 36.48-34.13333334 36.48zM504.53333333 622.93333333H207.04c-20.16 0-36.37333333-15.25333333-36.37333333-34.13333333s16.32-34.13333333 36.37333333-34.13333333H504.53333333c20.16 0 36.37333333 15.25333333 36.37333334 34.13333333s-16.21333333 34.13333333-36.37333334 34.13333333zM540.90666667 452.37333333c0 18.88-16.32 34.13333333-36.37333334 34.13333334H207.04c-20.16 0-36.37333333-15.25333333-36.37333333-34.13333334s16.32-34.13333333 36.37333333-34.13333333H504.53333333c20.16 0 36.37333333 15.25333333 36.37333334 34.13333333zM207.04 349.86666667c-20.16 0-36.37333333-15.25333333-36.37333333-34.13333334s16.32-34.13333333 36.37333333-34.13333333h194.56c20.16 0 36.37333333 15.25333333 36.37333333 34.13333333s-16.32 34.13333333-36.37333333 34.13333334H207.04zM971.62666667 757.12L845.54666667 829.9733333300001c-8.21333333 4.8-18.34666667 6.08-27.62666667 3.62666667-9.38666667-2.45333333-17.28-8.64-22.08-16.96L449.92 217.49333333000004c-3.62666667-6.18666667-5.22666667-13.33333333-4.8-20.48l8.42666667-131.09333333c0.74666667-12.16 7.57333333-23.14666667 18.13333333-29.22666667 5.65333333-3.2 11.84-4.90666667 18.24-4.90666666 5.54666667 0 10.98666667 1.28 16.10666667 3.73333333L623.68 93.86666666999997c6.50666667 3.2 11.84 8.21333333 15.36 14.4l345.81333333 599.14666666c10.24 17.38666667 4.26666667 39.68-13.22666666 49.70666667zM581.54666667 154.24L522.66666667 125.12l-4.16 65.49333333 251.84 436.26666667 63.04-36.37333333-251.84-436.26666667zM867.52 649.6l-63.04 36.37333333 36.16 62.61333334 63.04-36.37333334-36.16-62.61333333z"  horiz-adv-x="1024" />

    
    <glyph glyph-name="maia" unicode="&#58906;" d="M511.46478933 862.50564267c-263.89162667 0-477.86666667-213.97504-477.86666666-477.86666667s213.97504-477.86666667 477.86666666-477.86666667 477.86666667 213.97504 477.86666667 477.86666667c0 264.00085333-213.96957867 477.86666667-477.86666667 477.86666667zM563.16177067 276.18235732999995a198.80891733 198.80891733 0 0 0-8.92928-19.873792h42.62570666c21.118976-14.78929067 50.87232-37.05514667 89.28187734-66.813952l29.376512-22.75191466c19.19658667-14.78382933 39.550976-32.063488 61.05770666-51.838976h-120.67362133c-44.351488 47.62282667-82.84842667 86.97719467-115.48535467 118.079488-27.262976-37.830656-67.682304-66.13674667-121.24706133-84.96196267-33.98587733-11.90570667-75.36093867-22.462464-124.13064533-31.68119467-5.18280533-0.96119467-21.40842667-3.83931733-48.67140267-8.63982933v49.53429333c46.268416 11.71456 78.33736533 20.35438933 96.190464 25.919488 67.39285333 21.31012267 110.493696 52.314112 129.31345067 93.02289067h-223.20469334V331.18890667000005h237.31131734c3.06926933 21.889024 4.60936533 42.62570667 4.60936533 62.210048V535.95613867h90.43421867V393.39349333c0-21.118976-1.441792-41.86112-4.31991467-62.210048h199.58442667v-55.00654933h-213.123072z m193.82272 345.88808534v-162.72042667h-86.39829334V567.0638933299999H259.32049067V622.0704426699999h497.664zM435.57956267 419.31844267v-78.33736534c-30.14656 15.93617067-52.99131733 27.36128-68.54519467 34.26986667-17.27965867 7.67863467-43.96919467 17.95140267-80.06314667 30.818304V462.51758933c39.16868267-8.44868267 68.255744-15.64672 87.26664534-21.59957333 13.82263467-4.227072 34.26986667-11.42510933 61.341696-21.59957333z m29.376512 90.42875733v-78.33736533c-30.33770667 15.36273067-53.280768 26.40008533-68.83464534 33.11752533-17.47626667 7.487488-44.25864533 17.37796267-80.35259733 29.66596267V550.64712533c39.16868267-8.06638933 68.34858667-14.88213333 87.55063467-20.447232 13.828096-4.03592533 34.36817067-10.85166933 61.636608-20.45269333z"  horiz-adv-x="1024" />

    
    <glyph glyph-name="maib" unicode="&#58907;" d="M511.46478933 862.50564267c-263.89162667 0-477.86666667-213.97504-477.86666666-477.86666667s213.97504-477.86666667 477.86666666-477.86666667 477.86666667 213.97504 477.86666667 477.86666667c0 264.00085333-213.96957867 477.86666667-477.86666667 477.86666667zM382.93230933 307.84170667c-25.346048 13.82263467-62.59234133 30.048256-111.74434133 48.67140266v42.909696c39.35982933-8.830976 67.584-15.83786667 84.672512-21.02613333 12.67029333-4.030464 32.636928-11.13565867 59.90536533-21.31012267v-49.250304h61.341696c4.41821867 24.76714667 6.62459733 48.96085333 6.62459734 72.57565867V440.31726933h86.39829333v-59.90536533c0-27.459584-2.20637867-51.65329067-6.62459733-72.57565867h204.193792v-50.97608533h-220.03165867c-4.030464-7.87524267-7.39464533-14.01378133-10.08162133-18.432h54.43310933c20.348928-12.288 49.14653867-30.818304 86.39829333-55.58545067 37.43744-24.952832 66.62280533-45.79328 87.55063467-62.49403733h-120.67362133c-42.62570667 39.93873067-75.65038933 69.59377067-99.074048 88.99242667l-18.432 15.26442666a146.74056533 146.74056533 0 0 0-22.17847467-23.904256c-28.61192533-24.576-60.67541333-42.811392-96.190464-54.72256-37.82519467-12.67029333-94.66129067-25.43889067-170.49736533-38.305792v45.50382934c56.44834133 13.82263467 94.69952 24.150016 114.76992 30.96029866 20.05947733 6.81028267 40.46301867 16.55876267 61.19970133 29.23451734 19.00544 11.517952 33.78926933 26.017792 44.351488 43.48859733H240.08567467v50.97608533h142.84663466z m74.59089067 205.340672v46.65617066H279.25435733v50.97608534h178.274304v33.11752533h86.39829334v-33.11752533h184.60945066v-50.97608534h-184.60945066v-46.65617066h209.95003733v-136.80093867h-78.62135467V462.20629333H249.298944v50.97608534h208.224256z m1.15234133-88.702976v-67.10340267c-30.14656 15.16612267-52.12842667 25.72834133-65.95106133 31.68119467-15.55387733 6.52629333-42.04680533 16.22016-79.48970667 29.08706133v41.75735467c40.321024-7.487488 68.73088-13.34749867 85.245952-17.56910934 12.288-3.26587733 32.35293867-9.21326933 60.194816-17.85309866z"  horiz-adv-x="1024" />

    
    <glyph glyph-name="jiantou-right" unicode="&#59782;" d="M272.5664 383.99573332l478.86826667-444.64959999 0 889.3056-478.86826667-444.65600001z"  horiz-adv-x="1024" />

    
    <glyph glyph-name="jiantou-down" unicode="&#59783;" d="M512.00426668 144.56640000000004l444.64959999 478.86826667-889.3056 0 444.65600001-478.86826667z"  horiz-adv-x="1024" />

    
    <glyph glyph-name="jiantou-top" unicode="&#59784;" d="M511.99573332 623.4336000000001l-444.64959999-478.86826667 889.3056 0-444.65600001 478.86826667z"  horiz-adv-x="1024" />

    
    <glyph glyph-name="shouhuo" unicode="&#58909;" d="M511.46478933 862.50564267c-263.89162667 0-477.86666667-213.97504-477.86666666-477.86666667s213.97504-477.86666667 477.86666666-477.86666667 477.86666667 213.97504 477.86666667 477.86666667c0 264.00085333-213.96957867 477.86666667-477.86666667 477.86666667zM274.18077867 206.49574399999995h-49.381376v87.89469867l-75.69408-21.93271467V527.1906986700001h46.90193066v-198.48669867l28.79214934 7.44379733V562.274304h49.381376v-355.77856z m218.88477866 262.54267733h-32.22186666c-0.12561067-1.523712-0.25668267-3.555328-0.376832-6.10030933-2.92727467-68.00452267-17.481728-120.87569067-43.66336-158.63534933 0.38229333-0.50244267 1.26702933-1.654784 2.670592-3.424256 12.96520533-16.023552 29.294592-31.21152 48.99908266-45.56936534 5.72347733-4.07415467 13.59872-9.08765867 23.642112-15.07328v-33.74011733c-43.220992 17.154048-77.54001067 38.95569067-102.96251733 65.39946667-26.05602133-25.427968-59.80706133-47.47537067-101.24219733-66.16405334v35.46589867c25.165824 15.75594667 43.14999467 28.72661333 53.95797333 38.89015467 6.60821333 6.23138133 13.78986667 14.04654933 21.54496 23.45642666-22.1184 31.51735467-37.879808 64.258048-47.284224 98.19477334-9.15319467-10.04885333-20.27793067-20.40354133-33.36328533-31.080448v42.70762666c1.39264 2.031616 2.408448 3.555328 3.05288533 4.57659734 10.54583467 15.761408 19.12558933 34.13333333 25.739264 55.10485333 6.48260267 20.97152 11.501568 50.45725867 15.06235733 88.46813867h51.48398934c-2.162688-22.1184-4.95889067-40.80162133-8.388608-56.05512534h123.36059733v-36.421632z m193.91010134 26.49838934v66.3552h54.72256v-52.63086934c5.84362667 2.29376 13.08535467 6.03477333 21.73610666 11.255808 8.63982933 5.341184 15.28081067 9.93962667 19.922944 13.82263467 4.636672 3.87208533 10.00516267 9.437184 16.105472 16.68437333h60.82286934c-8.13192533-14.368768-16.203776-25.165824-24.215552-32.41847466-24.018944-22.1184-55.48168533-37.93988267-94.37730134-47.47537067v-20.97152h87.13557334v44.2368l41.56074666-9.72117333v-32.79530667c0-8.64529067-0.76458667-14.93674667-2.28829866-18.87982933-3.178496-8.00631467-8.70536533-13.664256-16.58606934-16.96290134-3.81201067-1.523712-10.043392-2.28829867-18.68868266-2.28829866h-56.246272l-52.625408-0.19114667h-5.718016c-11.94939733 0-20.91144533 4.95889067-26.886144 14.87121067-2.92181333 4.95889067-4.38545067 12.70852267-4.38545067 23.26528v10.48576l-5.15003733-0.76458667c-8.13192533-1.14141867-19.2512-2.47944533-33.36328534-4.00315733l-0.376832 32.800768c13.08535467 1.39264 24.33570133 2.85627733 33.74557867 4.38545066l5.15549867 0.93934934z m-65.20832-136.50602667v-84.082688h-54.72256V395.44149333h276.84590933v-120.49885866h-54.72256v84.082688h-167.40078933z m-92.094464 124.305408c20.463616 8.39406933 36.92407467 18.62314667 49.381376 30.69815467 12.32622933 12.20061867 22.50069333 28.09309867 30.507008 47.67197866h56.43741866c-11.18481067-27.84187733-23.38542933-48.49664-36.60731733-61.96974933v-93.421568h-54.72256V464.27613867c-9.91232-4.19976533-24.91460267-9.027584-44.99592533-14.49437867v33.554432z m268.075008-274.366464c-31.77403733 27.71080533-57.96113067 48.61678933-78.55035734 62.72887467-23.134208-37.37736533-85.54632533-58.60010667-187.236352-63.67914667v29.73696c34.31901867 4.07415467 57.07093333 7.49841067 68.26120534 10.29461333 24.150016 6.10030933 43.14453333 14.68552533 57.00539733 25.739264 13.729792 11.0592 20.594688 27.394048 20.594688 49.004544v22.315008h54.72256v-22.315008c0-11.04827733-1.654784-21.921792-4.95889067-32.59869866h16.20923734c23.773184-12.20061867 43.85450667-23.134208 60.24942933-32.800768 21.987328-12.83413333 45.24714667-28.983296 69.78491733-48.42564267h-76.08183466zM342.441984 437.57568l15.06235733 0.19114667c4.69674667-22.495232 10.03793067-41.11837867 16.01809067-55.86397867a538.96260267 538.96260267 0 0 1 15.630336-35.078144c12.58837333 28.59554133 19.83010133 69.33162667 21.73610667 122.208256h-52.81655467a289.35236267 289.35236267 0 0 0-15.630336-31.45728z"  horiz-adv-x="1024" />

    
    <glyph glyph-name="fahuo" unicode="&#58912;" d="M511.46478933 862.50564267c-263.89162667 0-477.86666667-213.97504-477.86666666-477.86666667s213.97504-477.86666667 477.86666666-477.86666667 477.86666667 213.97504 477.86666667 477.86666667c0 264.00085333-213.96957867 477.86666667-477.86666667 477.86666667zM427.31656533 550.395904c13.34749867-20.086784 23.83325867-38.895616 31.46274134-56.43741867H395.853824c-3.178496 17.03389867-8.896512 35.84273067-17.15950933 56.43741867h48.62225066z m71.69092267-103.530496H317.11232c-2.54498133-11.44149333-5.341184-21.80164267-8.388608-31.07498667h152.53504v-37.18621866c-7.880704-33.17213867-31.080448-66.92317867-69.59377067-101.24219734 26.56392533-18.04970667 61.77860267-32.09079467 105.627648-42.139648v-32.03072c-62.41211733 13.09627733-109.76187733 29.048832-142.04381866 47.86312534-32.41301333-18.939904-79.63716267-35.71712-141.66698667-50.33710934v32.03072c45.252608 13.090816 80.330752 28.147712 105.24535467 45.18161067-16.14370133 14.7456-32.096256 34.45009067-47.857664 59.10801067a450.72384 450.72384 0 0 0-35.08360534-44.99592534 338.87573333 338.87573333 0 0 0-46.90193066-43.28106666c-8.388608-6.356992-20.78037333-15.12789333-37.18075734-26.312704V264.3968c24.27562667 21.09713067 43.78897067 42.25979733 58.53457067 63.49346133 24.40669867 34.82692267 41.18391467 74.48712533 50.33710933 118.97514667h-87.32672v36.41617067l19.06551467 67.11432533h56.819712l-18.30638933-67.11432533h35.46589866l0.76458667 5.341184c2.41390933 19.83010133 4.31991467 42.83869867 5.718016 69.025792h58.916864c-2.92727467-32.79530667-5.59240533-57.58429867-8.00631467-74.36151467h175.22141867v-36.421632z m196.1984 43.08445867V556.30506667h54.72256v-52.63086934c5.84362667 2.29376 13.090816 6.03477333 21.73064533 11.255808 8.64529067 5.341184 15.286272 9.93962667 19.922944 13.82263467 4.64213333 3.87208533 10.010624 9.437184 16.11093334 16.68437333h60.82833066c-8.13738667-14.368768-16.20923733-25.165824-24.22101333-32.41847466-24.018944-22.1184-55.48168533-37.93988267-94.37730133-47.47537067v-20.97152h87.13557333v44.2368l41.56074667-9.72117333v-32.79530667c0-8.64529067-0.76458667-14.93674667-2.28829867-18.87982933-3.178496-8.00631467-8.71082667-13.664256-16.58606933-16.96290134-3.81201067-1.523712-10.043392-2.28829867-18.68322134-2.28829866h-56.25173333l-52.625408-0.19114667h-5.718016c-11.94939733 0-20.91144533 4.95889067-26.886144 14.87121067-2.92727467 4.95889067-4.38545067 12.70852267-4.38545067 23.26528v10.48576l-5.144576-0.76458667c-8.13738667-1.14141867-19.25666133-2.47944533-33.36874666-4.00315733l-0.376832 32.800768c13.08535467 1.39264 24.34116267 2.85627733 33.75104 4.38545066l5.15003733 0.93934934z m-65.21378133-136.511488v-84.082688h-54.72256V389.85454933h276.84590933v-120.49885866h-54.72256v84.082688h-167.40078933z m-92.08900267 124.31086933c20.463616 8.39406933 36.92407467 18.62314667 49.381376 30.69815467 12.33169067 12.20061867 22.50069333 28.09309867 30.507008 47.67197866h56.43741867c-11.190272-27.84187733-23.39089067-48.49664-36.60731734-61.96974933v-93.421568h-54.72256V458.68919467c-9.91232-4.19976533-24.920064-9.027584-44.99592533-14.49437867v33.554432z m268.08046933-274.366464c-31.77949867 27.71080533-57.96113067 48.61678933-78.56128 62.72887467-23.134208-37.371904-85.54632533-58.59464533-187.23089066-63.67914667v29.73696c34.31901867 4.07415467 57.07093333 7.503872 68.255744 10.30007467 24.150016 6.10030933 43.155456 14.680064 57.01085866 25.739264 13.729792 11.0592 20.594688 27.394048 20.594688 49.004544v22.30954666h54.72256v-22.30954666a109.88202667 109.88202667 0 0 0-4.95342933-32.60416h16.203776c23.76772267-12.20061867 43.85450667-23.134208 60.24942933-32.79530667 21.987328-12.83959467 45.252608-28.983296 69.78491734-48.431104h-76.07637334zM286.79645867 363.16501332999997h30.130176c13.467648-23.773184 26.37277867-42.074112 38.70446933-54.91370666 18.30638933 18.808832 33.87118933 42.51648 46.71624533 71.11748266H294.80277333a217.07707733 217.07707733 0 0 0-8.00631466-16.203776z"  horiz-adv-x="1024" />

    
    <glyph glyph-name="zhuanru" unicode="&#58889;" d="M987.32032 451.3024l-0.09216-0.01024c-0.88064 17.85856-15.5904 32.08192-33.664 32.08192a33.75616 33.75616 0 0 1-33.75616-33.75104c0-1.536 0.13824-3.04128 0.33792-4.52096l-0.13824-0.01536c2.95936-19.93216 4.49024-40.33024 4.49024-61.09184 0-227.81952-184.68352-412.4928-412.49792-412.4928S99.50208 156.18048 99.50208 384 284.18048 796.49792 512 796.49792c23.36256 0 46.24896-1.9968 68.55168-5.72416a33.792 33.792 0 0 1 7.38304-0.83456 33.75104 33.75104 0 0 1 33.75104 33.75104c0 15.86176-10.9568 29.1328-25.70752 32.74752l0.04608 0.24064a474.03008 474.03008 0 0 1-23.99744 3.6096A487.0656 487.0656 0 0 1 512 864C246.90176 864 32 649.09824 32 384s214.90176-480 480-480 480 214.90176 480 480a485.21216 485.21216 0 0 1-4.67968 67.3024zM597.87776 591.2576L511.73888 502.04672 425.56416 591.2832a33.74592 33.74592 0 0 1-47.7184 1.01888 33.74592 33.74592 0 0 1-1.01888-47.7184l0.1792-0.18944 89.70752-92.89728H392.00256A33.75104 33.75104 0 0 1 391.168 384h86.85056v-60.00128h-86.016a33.75104 33.75104 0 0 1-33.7664-33.7408 33.7408 33.7408 0 0 1 33.73568-33.76128h86.04672v-129.14688a33.75104 33.75104 0 0 1 67.50208-0.03584v129.18272h86.48192a33.75104 33.75104 0 1 1 0.03584 67.50208h-86.51776V384h86.48192a33.75616 33.75616 0 0 1 0.03584 67.50208h-75.27424l89.68192 92.86656a33.75616 33.75616 0 0 1-48.37888 47.0784l-0.18944-0.18944zM945.47456 705.29024h-126.38208V792.19712c0 18.63168-10.69056 23.06048-23.86944 9.8816L689.152 696.00768a33.7408 33.7408 0 0 1 0-47.7184l106.07104-106.07104c13.17888-13.17888 23.86944-8.7552 23.86944 9.8816V637.7984h126.38208a33.75104 33.75104 0 1 1 0 67.49184z"  horiz-adv-x="1024" />

    
    <glyph glyph-name="gouwuche" unicode="&#58914;" d="M841.088 234.40384H374.14912c-80.4352 0-146.16576 65.72544-146.16576 146.16064V615.0144H937.216c28.45184 0 51.01056-22.55872 51.01056-51.00544v-182.46144c0.00512-81.41824-65.7152-147.14368-147.13856-147.14368M281.94304 561.06496v-179.52256c0-51.00544 41.19552-92.20608 92.20608-92.20608h466.93888c51.00544 0 92.20608 41.20064 92.20608 92.20608V561.06496H281.94304zM254.46912 343.29088c-14.71488 0-27.4688 11.776-27.4688 27.46368V565.97504c0 86.31808-70.62528 156.9536-156.94848 156.9536-14.71488 0-27.4688 11.77088-27.4688 27.46368s11.77088 27.4688 27.4688 27.4688c116.736 0 211.8912-95.15008 211.8912-211.88608v-195.21536c0-15.6928-11.77088-27.4688-27.47392-27.4688m81.42336-353.14688c-59.84256 0-108.89216 49.03936-108.89216 108.88704s49.05472 108.88704 108.89216 108.88704c59.83744 0 108.88704-49.03936 108.88704-108.88704s-49.0496-108.88704-108.88704-108.88704m0 162.8416c-30.40768 0-53.94944-24.5248-53.94944-53.95456 0-29.42464 24.51968-53.94944 53.94944-53.94944 30.40768 0 53.94944 24.5248 53.94944 53.94944 0.00512 29.42976-23.53664 53.95456-53.94944 53.95456m515.98848-162.8416c-59.84256 0-108.89216 49.03936-108.89216 108.88704s49.0496 108.88704 108.89216 108.88704 108.88192-49.03936 108.88192-108.88704-49.04448-108.88704-108.88192-108.88704m0 162.8416c-30.4128 0-53.94944-24.5248-53.94944-53.95456 0-29.42464 24.51968-53.94944 53.94944-53.94944 29.42464 0 53.95456 24.5248 53.95456 53.94944 0 29.42976-23.54688 53.95456-53.95456 53.95456M662.5536 329.55904H363.36128c-22.56384 0-41.20064 18.6368-41.20064 41.19552 0 22.56384 18.6368 41.20064 41.20064 41.20064h298.20928c22.56384 0 41.20064-18.6368 41.20064-41.20064 0-22.55872-18.6368-41.19552-40.2176-41.19552"  horiz-adv-x="1024" />

    
    <glyph glyph-name="sousuo" unicode="&#58915;" d="M953.6512-65.4592c-18.9184-18.92864-49.60256-18.92864-68.51584 0l-68.52608 68.51584c-18.91328 18.92352-18.91328 49.60256 0 68.52096a48.46592 48.46592 0 0 0 68.52608 0l68.51584-68.52096c18.9184-18.92352 18.9184-49.60256 0-68.51584zM165.68832 140.09344c-160.82944 160.82432-160.82944 421.57568 0 582.4s421.5808 160.82944 582.4 0c160.82944-160.82432 160.82944-421.5808 0-582.4-160.8192-160.83456-421.57568-160.83456-582.4 0zM679.5776 653.9776c-122.98752 122.98752-322.39104 122.98752-445.37344 0-122.98752-122.98752-122.98752-322.38592 0-445.36832 122.98752-122.9824 322.3808-122.9824 445.37344 0 122.98752 122.98752 122.98752 322.3808 0 445.36832z m0 0"  horiz-adv-x="1024" />

    
    <glyph glyph-name="jiagouwuche" unicode="&#58928;" d="M844.8 453.632V296.96000000000004c0-44.544-35.84-80.384-80.384-80.384H356.352c-44.544 0-80.384 35.84-80.384 80.384V453.632h390.144v47.104H270.848c-19.456 81.408-92.672 142.336-180.224 142.336-13.824 0-24.064-10.24-24.064-24.064s11.264-24.064 24.064-24.064c75.264 0 137.216-61.952 137.216-137.216v-170.496c0-3.584 1.024-7.168 2.048-10.24 9.216-61.44 62.464-109.056 126.464-109.056h408.064c71.168 0 128.512 57.344 128.512 128.512V456.192c0 25.088-19.456 44.544-44.544 44.544h-73.216v-47.104H844.8zM322.56 144.89599999999996c-52.224 0-95.232-43.008-95.232-95.232s43.008-95.232 95.232-95.232c52.224 0 95.232 43.008 95.232 95.232s-43.008 95.232-95.232 95.232z m0-141.824c-25.6 0-47.104 21.504-47.104 47.104 0 25.6 20.48 47.104 47.104 47.104 26.624 0 47.104-21.504 47.104-47.104 0-26.112-20.48-47.104-47.104-47.104zM773.632 144.89599999999996c-52.224 0-95.232-43.008-95.232-95.232s43.008-95.232 95.232-95.232c52.224 0 95.232 43.008 95.232 95.232s-43.008 95.232-95.232 95.232z m0-141.824c-25.6 0-47.104 21.504-47.104 47.104 0 25.6 20.48 47.104 47.104 47.104 26.624 0 47.104-21.504 47.104-47.104 0-26.112-21.504-47.104-47.104-47.104zM607.232 323.072H346.624c-19.456 0-35.84-16.384-35.84-35.84s16.384-35.84 35.84-35.84h261.12c18.944 0 35.328 16.384 35.328 35.84 0 19.968-15.872 35.84-35.84 35.84zM919.04 641.024h-167.424V808.448c0 14.848-12.288 27.136-27.136 27.136h-8.192c-14.848 0-27.136-12.288-27.136-27.136v-167.424h-167.424c-14.848 0-27.136-12.288-27.136-27.136v-8.192c0-14.848 12.288-27.136 27.136-27.136h167.424V411.136c0-14.848 12.288-27.136 27.136-27.136h8.192c14.848 0 27.136 12.288 27.136 27.136V578.048h167.424c14.848 0 27.136 12.288 27.136 27.136v8.192c0 15.36-12.288 27.648-27.136 27.648z"  horiz-adv-x="1024" />

    
    <glyph glyph-name="caigou" unicode="&#58918;" d="M277.33504 810.66496V853.20704C277.33504 876.84096 296.32 896 319.80544 896h384.40448c23.4496 0 42.46016-19.13344 42.46016-42.79296v-42.53696h149.39648c23.53152 0 42.60352-19.17952 42.60352-42.77248v-853.12a42.6752 42.6752 0 0 0-42.56256-42.77248H127.93344a42.71104 42.71104 0 0 0-42.60352 42.77248V767.89248a42.66496 42.66496 0 0 0 42.56256 42.77248h149.44256z m0-85.32992H191.85152c-11.52 0-21.18144-9.55904-21.18144-21.33504v-725.32992c0-11.62752 9.472-21.34016 21.18144-21.34016H832.1536c11.52 0 21.18144 9.55904 21.18144 21.34016V704c0 11.62752-9.472 21.33504-21.18144 21.33504h-85.4784v-85.20704c0-23.63904-18.99008-42.79296-42.48064-42.79296h-384.4096c-23.44448 0-42.45504 19.13856-42.45504 42.79296V725.33504z m85.32992 64.20992v-85.76c0-11.49952 9.6-21.12 21.48352-21.12h255.69792a21.27872 21.27872 0 0 1 21.4784 21.09952V789.54496c0 11.49952-9.6 21.12-21.4784 21.12H384.14848a21.29408 21.29408 0 0 1-21.48352-21.09952v-0.02048zM270.72512 323.456h101.00224v20.2496h11.62752c-6.66624 12.07808-14.5408 25.00096-23.62368 38.74816l20.87424 10.99776-95.62624-3.00032c-2.33472 10.33216-5.08416 21.248-8.24832 32.74752 89.8304 1.16736 161.41312 3.66592 214.74816 7.5008l10.99776-32-113.75104-5.00224c10.25024-14.336 18.41664-26.4192 24.4992-36.2496l-26.12736-13.75232h19.87584v-20.2496h102.25152v-31.74912H428.09856c24.08448-24.58624 53.53984-43.66848 88.37632-57.25184-7.33696-8.17152-14.83264-18.07872-22.5024-29.75232-37.08416 19.50208-66.08384 42.8288-86.99904 70.00064v-83.00032h-35.2512v82.74944c-21.41696-27.24864-49.83296-51.00032-85.248-71.24992-6.33344 9.83552-13.75232 19.83488-22.25152 29.99808 33.16736 14.08 61.45536 33.58208 84.87424 58.50112H270.72512v31.76448z m37.248 64a717.6192 717.6192 0 0 0 34.24768-38.99904l-26.752-19.50208a647.2192 647.2192 0 0 1-32.25088 40.4992l24.7552 18.00192z m157.50144 6.25152l27.24864-18.00192a696.83712 696.83712 0 0 0-40.4992-45.50144l-24.00256 19.99872a514.85184 514.85184 0 0 1 37.25312 43.50464zM567.97696 386.95424h24.4992v-86.99904c0-8.4992-0.67072-16.67072-2.00192-24.4992 13.33248-13.6704 30.08-31.91808 50.24768-54.74816l-23.5008-22.00064c-10.16832 14.75072-22.00064 30.20288-35.50208 46.37696-8.83712-20.58752-23.24992-38.53824-43.24864-53.87264-4.50048 7.33696-10.4192 15.91808-17.75104 25.74848 31.49824 19.99872 47.25248 47.83104 47.25248 83.50208V386.95424z m87.24992 50.74944l30.49984-5.00224a575.02208 575.02208 0 0 0-9.12384-28.99968h84.87424l-0.50176-96.25088-0.74752-66.49856c-0.25088-13.6704-2.97984-24.14592-8.18688-31.4368-5.21216-7.296-11.70944-11.58656-19.50208-12.88192-7.79264-1.29024-26.73664-2.0992-56.81664-2.43712-1.83296 9.99936-4.41856 21.1712-7.75168 33.50016 23.66464-0.67072 38.08256-0.9984 43.24864-0.9984 12.32896 0 18.49856 6.83008 18.49856 20.50048v5.248l-18.49856-6.74816-4.12672 13.37344c-36.66944-2.83648-59.04384-5.7088-67.1232-8.6272l-10.25024 20.50048h-25.74848V397.45536h-47.49824v-127.49824h-25.74848V426.20416h99.00032v-54.3744c10.66496 19.16416 19.16416 41.12384 25.50272 65.87392z m55.99744-106.99776c6.41536-15.25248 12.66688-31.95904 18.74944-50.1248 0.16384 23.82848 0.25088 54.7072 0.25088 92.62592H664.4736c-6.8352-15.25248-14.24896-28.58496-22.25152-40.00256a253.51168 253.51168 0 0 1-12.49792 13.25056v-64.37376c10.41408 8.66304 22.91712 34.45248 37.49888 77.37344l28.7488-9.25184c-11.83744-27.17184-21.8368-49.08544-29.99808-65.75104l32.12288 2.62656a996.3008 996.3008 0 0 1-12.12416 34.37568l25.25184 9.25184z"  horiz-adv-x="1024" />

    
    </font>
</defs>
</svg>
